<svg width="72" height="72" viewBox="0 0 72 72" fill="none" xmlns="http://www.w3.org/2000/svg">
<path d="M53.7072 36.1654H18.292C18.0663 36.1671 17.8478 36.0855 17.6783 35.9364C17.5089 35.7872 17.4002 35.5809 17.3731 35.3568L14.4693 12.0071C14.3402 10.9849 14.4302 9.94692 14.7332 8.96218C15.0362 7.97745 15.5454 7.06849 16.2269 6.29575C16.9084 5.52301 17.7465 4.90418 18.6857 4.4804C19.6248 4.05662 20.6434 3.83759 21.6737 3.83789H50.3256C51.3559 3.83759 52.3744 4.05662 53.3136 4.4804C54.2527 4.90418 55.0908 5.52301 55.7723 6.29575C56.4538 7.06849 56.963 7.97745 57.266 8.96218C57.569 9.94692 57.659 10.9849 57.5299 12.0071L54.6169 35.3568C54.59 35.5793 54.4827 35.7844 54.3151 35.9333C54.1476 36.0823 53.9314 36.1648 53.7072 36.1654V36.1654ZM19.1007 34.3276H52.8985L55.7104 11.7773C55.804 11.0141 55.7346 10.2396 55.5069 9.50508C55.2792 8.77056 54.8984 8.09265 54.3896 7.51608C53.8807 6.9395 53.2554 6.47736 52.5549 6.16014C51.8544 5.84291 51.0946 5.67781 50.3256 5.67573H21.6737C20.9047 5.67781 20.1448 5.84291 19.4443 6.16014C18.7438 6.47736 18.1185 6.9395 17.6097 7.51608C17.1008 8.09265 16.72 8.77056 16.4923 9.50508C16.2646 10.2396 16.1953 11.0141 16.2888 11.7773L19.1007 34.3276Z" fill="#242424"/>
<path d="M53.8544 68.1622H49.7101C49.4771 68.1628 49.2526 68.0749 49.082 67.9162C48.9114 67.7576 48.8075 67.54 48.7912 67.3076L47.6058 49.9676C47.5969 49.8416 47.6141 49.7152 47.6564 49.5962C47.6986 49.4772 47.7648 49.3681 47.8511 49.2759C47.9373 49.1836 48.0416 49.1101 48.1575 49.0599C48.2734 49.0098 48.3984 48.9841 48.5247 48.9844H55.2052C55.3312 48.9848 55.4558 49.0111 55.5712 49.0617C55.6866 49.1123 55.7904 49.186 55.876 49.2784C55.962 49.372 56.0276 49.4824 56.0687 49.6026C56.1098 49.7228 56.1256 49.8502 56.115 49.9768L54.7641 67.3168C54.7458 67.546 54.6421 67.76 54.4737 67.9165C54.3053 68.073 54.0843 68.1607 53.8544 68.1622V68.1622ZM50.5739 66.3244H52.9998L54.2036 50.8222H49.5079L50.5739 66.3244Z" fill="#242424"/>
<path d="M22.2889 68.1622H18.1446C17.9131 68.163 17.6899 68.0763 17.5195 67.9196C17.3491 67.7628 17.2442 67.5476 17.2257 67.3168L15.8841 49.9768C15.8735 49.8502 15.8892 49.7228 15.9303 49.6026C15.9715 49.4824 16.0371 49.372 16.123 49.2784C16.2087 49.186 16.3124 49.1123 16.4278 49.0617C16.5432 49.0111 16.6678 48.9848 16.7938 48.9844H23.4743C23.6006 48.9841 23.7256 49.0098 23.8415 49.0599C23.9574 49.1101 24.0617 49.1836 24.148 49.2759C24.2342 49.3681 24.3005 49.4772 24.3427 49.5962C24.3849 49.7152 24.4021 49.8416 24.3933 49.9676L23.2079 67.3076C23.1916 67.54 23.0876 67.7576 22.917 67.9162C22.7464 68.0749 22.5219 68.1628 22.2889 68.1622V68.1622ZM18.9992 66.3244H21.4252L22.4911 50.8222H17.7954L18.9992 66.3244Z" fill="#242424"/>
<path d="M60.8743 50.8222H11.124C10.8803 50.8222 10.6466 50.7254 10.4742 50.5531C10.3019 50.3807 10.2051 50.147 10.2051 49.9033V39.5563C10.2075 38.1703 10.7592 36.8418 11.7392 35.8618C12.7192 34.8817 14.0477 34.3301 15.4337 34.3276H56.5645C57.9505 34.3301 59.279 34.8817 60.2591 35.8618C61.2391 36.8418 61.7908 38.1703 61.7932 39.5563V49.9033C61.7932 50.147 61.6964 50.3807 61.524 50.5531C61.3517 50.7254 61.118 50.8222 60.8743 50.8222ZM12.0429 48.9844H59.9554V39.5563C59.9554 38.657 59.5981 37.7945 58.9622 37.1586C58.3263 36.5227 57.4638 36.1655 56.5645 36.1655H15.4337C14.5344 36.1655 13.672 36.5227 13.0361 37.1586C12.4002 37.7945 12.0429 38.657 12.0429 39.5563V48.9844Z" fill="#0054D4"/>
</svg>
