<svg width="80" height="80" viewBox="0 0 80 80" fill="none" xmlns="http://www.w3.org/2000/svg">
<path d="M53.9215 24.126L33.6888 17.1469C31.772 16.4916 29.6259 16.6227 27.791 17.5074L26.7753 17.9988C25.3991 18.6705 23.7772 18.7688 22.3355 18.2446L20.599 17.622C20.5171 17.5729 20.4351 17.5237 20.3532 17.491L9.99932 13.9687C9.75358 13.8868 9.47507 13.9031 9.24571 14.0178C9.01635 14.1325 8.83614 14.3291 8.75423 14.5748L0.0549783 39.9518C-0.125232 40.4596 0.153275 41.0166 0.661141 41.1968L11.0314 44.7519C11.1461 44.8011 11.2444 44.8174 11.3591 44.8174C11.5065 44.8174 11.654 44.7847 11.785 44.7191C12.0144 44.6045 12.1946 44.4079 12.2765 44.1621L20.6481 19.7518L21.6966 20.1286C23.6298 20.8167 25.8087 20.6856 27.6599 19.7846L28.6757 19.2931C30.0354 18.6214 31.641 18.5231 33.0663 19.0146L52.5454 25.7315C52.3979 26.5834 51.9883 27.9923 50.9235 28.7296C49.9733 29.3849 48.5971 29.4176 46.8605 28.8115L38.3579 25.9117C38.0958 25.8298 37.8173 25.8462 37.5715 25.9772C37.3258 26.1083 37.1619 26.3377 37.08 26.5998C37.0636 26.6489 35.8022 31.3017 31.8703 33.3986C29.3801 34.742 26.3002 34.7912 22.7123 33.5625C22.2045 33.3823 21.6475 33.6608 21.4673 34.1686C21.287 34.6765 21.5656 35.2335 22.0734 35.4137C23.9902 36.069 25.8087 36.3967 27.4961 36.3967C29.4293 36.3967 31.1986 35.9707 32.8041 35.1025C36.31 33.2184 37.9975 29.7781 38.6364 28.0742L46.1888 30.6627C48.5644 31.4819 50.5139 31.3672 52.0211 30.3351C54.4458 28.664 54.5604 25.2236 54.5768 25.0762C54.5932 24.6502 54.3147 24.2571 53.9215 24.126ZM10.7529 42.573L2.23389 39.6569L10.2942 16.1476L18.5839 18.9818C18.6494 19.0146 18.715 19.0473 18.7805 19.0801L18.8132 19.0965L10.7529 42.573Z" fill="#0054D4"/>
<path d="M79.9053 38.6577L68.0769 14.6242C67.9622 14.3949 67.7656 14.2147 67.5199 14.1327C67.2742 14.0508 66.9957 14.0672 66.7663 14.1819L56.9203 18.9984C56.4288 19.2442 56.2322 19.8176 56.4615 20.309L67.9295 43.7364L64.0795 47.2587C60.8194 50.2567 57.1332 52.7633 53.1522 54.7129L34.2957 63.9364C33.7714 64.1985 33.1816 64.2312 32.6246 64.0346C32.0676 63.8381 31.6253 63.4449 31.3631 62.9206C31.101 62.3964 31.0683 61.8066 31.2648 61.2496C31.4614 60.6926 31.8546 60.2502 32.3789 59.9881L42.913 54.8275C43.4045 54.5818 43.6011 54.0084 43.3717 53.5169C43.126 53.0254 42.5362 52.8288 42.0611 53.0582L31.7563 58.1041L26.563 60.6434C25.4817 61.1677 24.1547 60.7253 23.6305 59.6441C23.1062 58.5628 23.5486 57.2522 24.6298 56.7116L39.7675 49.3065C40.259 49.0608 40.4556 48.4874 40.2262 47.9959C39.9805 47.5044 39.3907 47.3078 38.9156 47.5372L27.7098 53.0254L23.7779 54.9422L21.9267 55.8433C20.8454 56.3675 19.5184 55.9252 18.9942 54.8439C18.4699 53.7627 18.9122 52.4357 19.9935 51.9114L21.8611 50.994L35.4097 44.3589C35.9012 44.1132 36.0978 43.5398 35.8684 43.0483C35.6227 42.5568 35.0329 42.3602 34.5578 42.5896L25.8585 46.8491L21.0092 49.2246C20.485 49.4868 19.8952 49.5195 19.3382 49.3229C18.7812 49.1263 18.3388 48.7331 18.0767 48.2089C17.8146 47.6847 17.7818 47.0949 17.9784 46.5379C18.175 45.9808 18.5682 45.5385 19.0924 45.2764L26.2845 41.7541C26.776 41.5083 26.9726 40.9349 26.7432 40.4435C26.4975 39.952 25.9077 39.7554 25.4326 39.9847L18.2405 43.507C17.2412 43.9985 16.4876 44.8504 16.1272 45.8989C15.7667 46.9474 15.8323 48.0778 16.3238 49.0772C16.7006 49.8636 17.3231 50.4861 18.0767 50.8957C16.8316 52.1244 16.4548 54.0412 17.2576 55.6794C17.9784 57.1539 19.4529 58.0058 20.9928 58.0058C21.1731 58.0058 21.3533 57.9894 21.5335 57.973C21.4024 58.7922 21.5007 59.6605 21.8939 60.4796C22.6147 61.954 24.0892 62.8059 25.6292 62.8059C26.2353 62.8059 26.8579 62.6749 27.4477 62.38L29.2334 61.4953C29.1515 62.2653 29.2825 63.0353 29.643 63.7398C30.1344 64.7391 30.9863 65.4927 32.0348 65.8531C32.4772 66.0006 32.9359 66.0825 33.3946 66.0825C34.0171 66.0825 34.6397 65.9351 35.2131 65.6565L54.0697 56.433C58.2309 54.4016 62.0481 51.7803 65.4557 48.6512L69.7316 44.7194L79.4466 39.9684C79.938 39.7226 80.1346 39.1492 79.9053 38.6577ZM69.5841 42.6551L58.6568 20.3254L66.7499 16.3772L77.6608 38.7069L69.5841 42.6551Z" fill="#242424"/>
</svg>
