<svg width="72" height="72" viewBox="0 0 72 72" fill="none" xmlns="http://www.w3.org/2000/svg">
<g clip-path="url(#clip0)">
<path d="M58.7212 18.1483L36.1706 6.13221C35.836 5.95366 35.4351 5.95617 35.103 6.13847L13.1764 18.1546C12.8168 18.352 12.5938 18.7291 12.5938 19.1395V34.8356C12.6069 47.7382 20.2514 59.4111 32.0733 64.5803L35.1168 65.9065C35.4012 66.0306 35.7251 66.0312 36.0102 65.9078L39.4396 64.4268C51.4808 59.3697 59.3145 47.5841 59.3157 34.5243V19.1395C59.3157 18.7247 59.0871 18.3432 58.7212 18.1483ZM57.0704 34.5243C57.0679 46.6839 49.7724 57.6556 38.5606 62.3612L38.5531 62.365L35.5666 63.6543L32.9717 62.5222C21.9673 57.7108 14.851 46.8461 14.8385 34.8356V19.8042L35.65 8.39824L57.0704 19.8123V34.5243Z" fill="#242424"/>
<path d="M27.3656 34.1077C26.9628 33.6359 26.2542 33.5802 25.7825 33.983C25.3107 34.3852 25.255 35.0944 25.6578 35.5655L31.5882 42.5102C31.9841 42.9738 32.6776 43.0371 33.15 42.6524L46.9617 31.4156C47.4428 31.0247 47.5155 30.3174 47.1239 29.8362C46.733 29.3557 46.0257 29.2824 45.5446 29.674L32.5837 40.2178L27.3656 34.1077Z" fill="#0054D4"/>
</g>
<defs>
<clipPath id="clip0">
<rect width="60" height="60" fill="white" transform="translate(6 6)"/>
</clipPath>
</defs>
</svg>
