<svg width="72" height="72" viewBox="0 0 72 72" fill="none" xmlns="http://www.w3.org/2000/svg">
<path d="M40.625 15.85C39.9426 15.85 39.4 15.3215 39.4 14.6842V10.2632C39.4 8.72416 38.0918 7.48158 36.5 7.48158C34.9082 7.48158 33.6 8.72416 33.6 10.2632V14.6842C33.6 15.3215 33.0574 15.85 32.375 15.85C31.6924 15.85 31.15 15.324 31.15 14.6842V10.2632C31.15 7.44952 33.5433 5.15 36.5 5.15C39.4567 5.15 41.85 7.44952 41.85 10.2632V14.6842C41.85 15.324 41.3076 15.85 40.625 15.85Z" fill="#0054D4" stroke="white" stroke-width="0.3"/>
<path d="M36.5 66.85C31.3324 66.85 27.15 62.9808 27.15 58.25C27.15 57.6542 27.679 57.15 28.3571 57.15C29.0353 57.15 29.5643 57.6542 29.5643 58.25C29.5643 61.7892 32.6887 64.65 36.5 64.65C40.3113 64.65 43.4357 61.7892 43.4357 58.25C43.4357 57.6542 43.9647 57.15 44.6429 57.15C45.321 57.15 45.85 57.6542 45.85 58.25C45.85 62.9808 41.6676 66.85 36.5 66.85Z" fill="#0054D4" stroke="white" stroke-width="0.3"/>
<path d="M13.9418 54.1116L13.9415 54.1118C13.6263 54.381 13.45 54.7639 13.45 55.1667C13.45 55.927 14.0658 56.5444 14.825 56.5444H58.175C58.9342 56.5444 59.55 55.927 59.55 55.1667C59.55 54.7644 59.3741 54.3814 59.0689 54.1197L59.0684 54.1193C54.511 50.2564 51.9 44.6212 51.9 38.6527V30.8889C51.9 22.3775 44.9934 15.4556 36.5 15.4556C28.0066 15.4556 21.1 22.3775 21.1 30.8889V38.6527C21.1 44.6238 18.4915 50.2564 13.9418 54.1116ZM14.825 58.9C12.7716 58.9 11.1 57.2251 11.1 55.1667C11.1 54.0739 11.5743 53.0411 12.4039 52.3292C16.4448 48.9063 18.75 43.9259 18.75 38.6527V30.8889C18.75 21.0795 26.7124 13.1 36.5 13.1C46.2876 13.1 54.25 21.0795 54.25 30.8889V38.6527C54.25 43.9285 56.5552 48.9064 60.576 52.3115C61.4261 53.0415 61.9 54.0744 61.9 55.1667C61.9 57.2251 60.2309 58.9 58.175 58.9H14.825Z" fill="#242424" stroke="white" stroke-width="0.2"/>
</svg>
