<svg width="72" height="72" viewBox="0 0 72 72" fill="none" xmlns="http://www.w3.org/2000/svg">
<g clip-path="url(#clip0)">
<path d="M36 6C19.4316 6 6 19.4316 6 36C6 52.5684 19.4316 66 36 66C36.9038 66 37.8042 65.9595 38.7002 65.8789C39.5332 65.8042 40.3589 65.6899 41.1782 65.5469L41.4932 65.4912C56.7261 62.6484 67.2881 48.6724 65.8633 33.2417C64.4385 17.811 51.4961 6.00488 36 6V6ZM33.5898 63.894H33.519C32.7412 63.8252 31.9692 63.7212 31.2041 63.5879C31.1602 63.5801 31.1162 63.5752 31.0732 63.5669C30.3252 63.4331 29.585 63.2671 28.8521 63.0732L28.6748 63.0278C27.96 62.834 27.2529 62.6089 26.5562 62.3589C26.4839 62.333 26.4111 62.3101 26.3389 62.2832C25.6558 62.0322 24.9849 61.751 24.3242 61.4468C24.2422 61.4102 24.1602 61.375 24.0781 61.3359C23.4302 61.0361 22.7949 60.6982 22.1719 60.3428C22.084 60.293 21.9951 60.2432 21.9072 60.1938C21.2939 59.8359 20.6948 59.4521 20.1069 59.0469C20.0181 58.9849 19.9282 58.9248 19.8398 58.8628C19.2622 58.4531 18.6992 58.0181 18.1509 57.563L18 57.4312V49C18.0073 42.9277 22.9277 38.0073 29 38H43C49.0723 38.0073 53.9927 42.9277 54 49V57.4321L53.8672 57.543C53.3081 58.0098 52.7344 58.4512 52.145 58.8682C52.0669 58.9229 51.9878 58.9751 51.9102 59.0288C51.3154 59.4419 50.7061 59.8306 50.082 60.1958C50.0039 60.2412 49.9238 60.2842 49.8462 60.3291C49.2139 60.689 48.5708 61.0288 47.915 61.335C47.8398 61.3701 47.7642 61.4028 47.688 61.4351C47.022 61.7422 46.3452 62.0249 45.6572 62.2778C45.5889 62.3032 45.52 62.3252 45.457 62.3491C44.7568 62.6001 44.0469 62.8271 43.3281 63.022L43.1558 63.0649C42.4219 63.2588 41.6812 63.4258 40.9321 63.5601C40.8892 63.5679 40.8462 63.5732 40.8032 63.5801C40.0371 63.7139 39.2642 63.8179 38.4858 63.8872H38.415C37.6152 63.9561 36.8149 63.9932 36.0049 63.9932C35.1948 63.9932 34.3882 63.9629 33.5898 63.894ZM56 55.5781V49C55.9917 41.8237 50.1763 36.0083 43 36H29C21.8237 36.0083 16.0083 41.8237 16 49V55.5771C5.22949 44.5845 5.34961 26.96 16.2686 16.1147C27.1875 5.27002 44.8125 5.27002 55.7314 16.1147C66.6504 26.96 66.7705 44.5845 56 55.5771V55.5781Z" fill="#242424"/>
<path d="M36 14C30.4771 14 26 18.4771 26 24C26 29.5229 30.4771 34 36 34C41.5229 34 46 29.5229 46 24C45.9941 18.4795 41.5205 14.0059 36 14ZM36 32C31.5815 32 28 28.4185 28 24C28 19.5815 31.5815 16 36 16C40.4185 16 44 19.5815 44 24C43.9951 28.416 40.416 31.9951 36 32Z" fill="#0054D4"/>
</g>
<defs>
<clipPath id="clip0">
<rect width="60" height="60" fill="white" transform="translate(6 6)"/>
</clipPath>
</defs>
</svg>
