<svg width="41" height="26" viewBox="0 0 41 26" fill="none" xmlns="http://www.w3.org/2000/svg">
<g clip-path="url(#clip0)">
<path d="M36.2243 26H4.13231C3.03798 25.9975 1.98922 25.5614 1.21578 24.7873C0.442337 24.0131 0.00726322 22.9639 0.00585938 21.8695V4.13044C0.00726597 3.03541 0.442888 1.98563 1.21719 1.21132C1.9915 0.43702 3.04127 0.00140659 4.1363 0H36.2243C37.3195 0.00105555 38.3694 0.436555 39.1438 1.21093C39.9182 1.98531 40.3537 3.0353 40.3548 4.13044V21.8695C40.3537 22.9647 39.9182 24.0147 39.1438 24.789C38.3694 25.5634 37.3195 25.9989 36.2243 26V26ZM4.13231 1.41403C3.41114 1.41508 2.71981 1.70203 2.20986 2.21198C1.69992 2.72192 1.41296 3.41325 1.41191 4.13443V21.8735C1.41296 22.5947 1.69992 23.286 2.20986 23.796C2.71981 24.3059 3.41114 24.5929 4.13231 24.5939H36.2243C36.9463 24.5932 37.6384 24.3058 38.1486 23.795C38.6587 23.2841 38.9451 22.5915 38.9447 21.8695V4.13044C38.944 3.40916 38.6572 2.71762 38.1472 2.2076C37.6371 1.69758 36.9456 1.41074 36.2243 1.41004L4.13231 1.41403Z" fill="white"/>
<path d="M29.0505 13.8237C29.5056 13.8237 29.8745 13.4548 29.8745 12.9997C29.8745 12.5447 29.5056 12.1758 29.0505 12.1758C28.5955 12.1758 28.2266 12.5447 28.2266 12.9997C28.2266 13.4548 28.5955 13.8237 29.0505 13.8237Z" fill="white"/>
<path d="M11.3044 13.8237C11.7595 13.8237 12.1284 13.4548 12.1284 12.9997C12.1284 12.5447 11.7595 12.1758 11.3044 12.1758C10.8494 12.1758 10.4805 12.5447 10.4805 12.9997C10.4805 13.4548 10.8494 13.8237 11.3044 13.8237Z" fill="white"/>
<path d="M20.1775 22.6972C20.6325 22.6972 21.0014 22.3283 21.0014 21.8733C21.0014 21.4182 20.6325 21.0493 20.1775 21.0493C19.7224 21.0493 19.3535 21.4182 19.3535 21.8733C19.3535 22.3283 19.7224 22.6972 20.1775 22.6972Z" fill="white"/>
<path d="M20.1775 4.95017C20.6325 4.95017 21.0014 4.58127 21.0014 4.12621C21.0014 3.67115 20.6325 3.30225 20.1775 3.30225C19.7224 3.30225 19.3535 3.67115 19.3535 4.12621C19.3535 4.58127 19.7224 4.95017 20.1775 4.95017Z" fill="white"/>
<path d="M27.863 18.2617C28.3181 18.2617 28.687 17.8928 28.687 17.4377C28.687 16.9827 28.3181 16.6138 27.863 16.6138C27.408 16.6138 27.0391 16.9827 27.0391 17.4377C27.0391 17.8928 27.408 18.2617 27.863 18.2617Z" fill="white"/>
<path d="M12.4919 9.3867C12.947 9.3867 13.3159 9.0178 13.3159 8.56273C13.3159 8.10767 12.947 7.73877 12.4919 7.73877C12.0369 7.73877 11.668 8.10767 11.668 8.56273C11.668 9.0178 12.0369 9.3867 12.4919 9.3867Z" fill="white"/>
<path d="M15.738 21.5093C16.1931 21.5093 16.562 21.1404 16.562 20.6853C16.562 20.2302 16.1931 19.8613 15.738 19.8613C15.283 19.8613 14.9141 20.2302 14.9141 20.6853C14.9141 21.1404 15.283 21.5093 15.738 21.5093Z" fill="white"/>
<path d="M24.615 6.13865C25.07 6.13865 25.4389 5.76975 25.4389 5.31468C25.4389 4.85962 25.07 4.49072 24.615 4.49072C24.1599 4.49072 23.791 4.85962 23.791 5.31468C23.791 5.76975 24.1599 6.13865 24.615 6.13865Z" fill="white"/>
<path d="M24.615 21.5093C25.07 21.5093 25.4389 21.1404 25.4389 20.6853C25.4389 20.2302 25.07 19.8613 24.615 19.8613C24.1599 19.8613 23.791 20.2302 23.791 20.6853C23.791 21.1404 24.1599 21.5093 24.615 21.5093Z" fill="white"/>
<path d="M15.738 6.13865C16.1931 6.13865 16.562 5.76975 16.562 5.31468C16.562 4.85962 16.1931 4.49072 15.738 4.49072C15.283 4.49072 14.9141 4.85962 14.9141 5.31468C14.9141 5.76975 15.283 6.13865 15.738 6.13865Z" fill="white"/>
<path d="M12.4919 18.2617C12.947 18.2617 13.3159 17.8928 13.3159 17.4377C13.3159 16.9827 12.947 16.6138 12.4919 16.6138C12.0369 16.6138 11.668 16.9827 11.668 17.4377C11.668 17.8928 12.0369 18.2617 12.4919 18.2617Z" fill="white"/>
<path d="M27.863 9.3867C28.3181 9.3867 28.687 9.0178 28.687 8.56273C28.687 8.10767 28.3181 7.73877 27.863 7.73877C27.408 7.73877 27.0391 8.10767 27.0391 8.56273C27.0391 9.0178 27.408 9.3867 27.863 9.3867Z" fill="white"/>
<path d="M15.834 15.6473V10.6929H19.4953V11.4903H16.7842V12.7289H19.3345V13.5183H16.7842V14.8472H19.4887V15.6446L15.834 15.6473Z" fill="white"/>
<path d="M24.8835 10.6929V13.5714C24.8835 15.0718 23.8589 15.7204 22.7279 15.7204C21.5504 15.7204 20.5059 15.0718 20.5059 13.5714V10.6929H21.4561V13.5714C21.4561 14.5017 22.0647 14.8499 22.7611 14.8499C23.3778 14.8499 23.9333 14.4951 23.9333 13.5714V10.6929H24.8835Z" fill="white"/>
</g>
<defs>
<clipPath id="clip0">
<rect width="40.3529" height="26" fill="white"/>
</clipPath>
</defs>
</svg>
