<svg width="165" height="15" viewBox="0 0 165 15" fill="none" xmlns="http://www.w3.org/2000/svg">
<g clip-path="url(#clip0)">
<path d="M0.439898 6.28912C0.844246 2.9913 4.07251 0.356514 7.38772 0.630427C10.4529 0.410862 13.4269 2.66956 14.1269 5.64564C15.1964 9.24347 12.8377 13.5 9.07903 14.1696C9.07033 13.2087 9.07685 12.2478 9.07251 11.2869C11.5312 10.0435 12.0073 6.38695 10.1203 4.44999C8.74859 2.95651 6.17903 2.87825 4.72033 4.28695C2.68772 6.11304 3.02033 9.8913 5.47903 11.1935C5.49425 12.1869 5.4899 13.1804 5.48338 14.1761C2.99207 13.5652 0.920333 11.4587 0.468159 8.91956C0.374681 8.04564 0.400768 7.16304 0.439898 6.28912Z" fill="white" stroke="white" stroke-width="0.09375"/>
<path d="M63.623 3.38464C65.9556 0.0824642 71.2947 -0.382753 74.2295 2.34986C73.7317 3.07594 73.2121 3.78899 72.7034 4.50855C71.1882 3.27377 68.8773 2.76942 67.1817 3.93246C64.7817 5.55203 64.8817 9.61507 67.3143 11.1564C68.8208 12.1694 70.8447 11.8064 72.2621 10.8064C72.2708 10.0955 72.2752 9.38681 72.2665 8.67594C71.1491 8.6629 70.0295 8.6716 68.9099 8.66725C68.9034 7.96073 68.9034 7.25638 68.9099 6.54986C70.9404 6.54768 72.9708 6.54986 74.9991 6.54768C75.0034 8.25855 74.9991 9.96725 75.0034 11.6759C72.6839 14.7303 67.8752 15.3064 64.8991 12.9042C62.0621 10.7194 61.5556 6.25638 63.623 3.38464Z" fill="white" stroke="white" stroke-width="0.09375"/>
<path d="M22.2498 0.971493C23.5737 0.964971 24.8977 0.969319 26.2237 0.969319C27.3846 4.07149 28.4824 7.19541 29.6542 10.2932C30.8129 7.18671 31.8781 4.04323 33.0824 0.954102C34.3977 0.988884 35.7107 0.956276 37.0237 0.973667C37.3607 5.33236 37.8803 9.67801 38.1042 14.0432C37.1064 14.0758 36.1107 14.0563 35.1129 14.0563C34.8955 11.0911 34.665 8.12801 34.4455 5.16497C33.3477 8.12149 32.3194 11.1041 31.2172 14.0606C30.1672 14.0606 29.115 14.0563 28.065 14.065C26.952 11.1128 25.9303 8.12367 24.8303 5.16715C24.5998 8.13236 24.4042 11.0998 24.1433 14.0628C23.1281 14.0606 22.1129 14.0563 21.0977 14.065C21.4694 9.69975 21.8759 5.33671 22.2498 0.971493Z" fill="white" stroke="white" stroke-width="0.09375"/>
<path d="M45.87 0.971523C49.0591 0.967175 52.2504 0.967175 55.4395 0.971523C55.4417 1.80631 55.4439 2.64109 55.4395 3.47587C53.246 3.48022 51.0526 3.47587 48.8591 3.48022C48.8591 4.38457 48.8591 5.28891 48.8613 6.19326C50.8069 6.19761 52.7526 6.19326 54.7004 6.19544C54.7026 6.99326 54.7026 7.78891 54.7004 8.58674C52.7526 8.58891 50.8069 8.58457 48.8613 8.58891C48.8569 9.565 48.8591 10.5433 48.8591 11.5193C51.1113 11.5237 53.3634 11.5193 55.6156 11.5237C55.6156 12.3672 55.6178 13.2128 55.6134 14.0585C52.3656 14.0628 49.12 14.0585 45.8721 14.0607C45.8656 9.69761 45.8721 5.33457 45.87 0.971523Z" fill="white" stroke="white" stroke-width="0.09375"/>
<path d="M87.0229 0.978108C88.0055 0.941152 88.9903 0.986804 89.9729 0.962891C91.8294 5.31724 93.6903 9.67376 95.4773 14.0564C94.4142 14.0629 93.3534 14.0629 92.2903 14.0542C91.9968 13.2912 91.686 12.5346 91.4164 11.7629C89.4555 11.6998 87.4925 11.7368 85.5294 11.7433C85.236 12.5172 84.9381 13.2912 84.6273 14.0585C83.5686 14.0607 82.5099 14.0651 81.4512 14.0564C83.0838 9.8868 84.9338 5.79985 86.6338 1.65637C86.7533 1.43028 86.8033 1.13246 87.0229 0.978108ZM86.4816 9.33898C87.7968 9.33898 89.1142 9.34333 90.4294 9.3368C89.7729 7.65637 89.1229 5.97376 88.4534 4.29767C87.7903 5.97593 87.1186 7.64985 86.4816 9.33898Z" fill="white" stroke="white" stroke-width="0.09375"/>
<path d="M102.826 0.967285C103.115 0.971633 103.408 0.971633 103.702 0.969459C103.706 5.06729 103.7 9.16729 103.704 13.2651C106.187 13.2738 108.671 13.2651 111.154 13.2695C111.156 13.4651 111.16 13.8564 111.163 14.0521C108.384 14.0716 105.606 14.0521 102.828 14.0608C102.821 9.69772 102.826 5.3325 102.826 0.967285Z" fill="white" stroke="white" stroke-width="0.09375"/>
<path d="M123.49 0.854004C123.738 0.871395 123.983 0.888786 124.233 0.908352C126.066 5.3127 128.079 9.64096 129.901 14.0497C129.588 14.0518 129.275 14.0562 128.964 14.0627C128.485 12.9453 128.007 11.8257 127.529 10.7084C125.068 10.7127 122.607 10.6888 120.148 10.7192C119.661 11.841 119.235 12.9931 118.677 14.0801C118.377 14.067 118.079 14.0584 117.783 14.0497C119.635 9.63226 121.592 5.254 123.49 0.854004ZM123.84 2.16705C122.74 4.74096 121.629 7.31053 120.527 9.88444C122.74 9.89966 124.953 9.88444 127.166 9.89313C126.061 7.31705 124.966 4.73444 123.84 2.16705Z" fill="white" stroke="white" stroke-width="0.09375"/>
<path d="M137.387 0.967127C140.237 0.969301 143.087 0.962779 145.939 0.971475C145.939 1.16278 145.937 1.54104 145.937 1.73234C143.365 1.73669 140.793 1.72582 138.223 1.73669C138.221 3.478 138.221 5.21713 138.223 6.95843C140.517 6.96713 142.81 6.9606 145.106 6.96278C145.104 7.23887 145.106 7.51495 145.11 7.78887C142.815 7.78452 140.519 7.78452 138.223 7.78887C138.219 9.61495 138.221 11.4389 138.223 13.2628C140.845 13.2736 143.467 13.2628 146.089 13.2671C146.084 13.5323 146.084 13.7976 146.084 14.0606C143.184 14.0584 140.284 14.0628 137.384 14.0606C137.378 9.69539 137.376 5.33234 137.387 0.967127Z" fill="white" stroke="white" stroke-width="0.09375"/>
<path d="M154.131 0.96968C154.461 0.971854 154.794 0.974028 155.131 0.96968C157.911 4.83272 160.655 8.72403 163.439 12.5871C163.45 8.71316 163.409 4.83707 163.459 0.965332C163.752 0.96968 164.05 0.971854 164.348 0.971854C164.344 5.33707 164.352 9.70229 164.344 14.0675C164.018 14.0588 163.694 14.0523 163.37 14.0523C160.581 10.1479 157.813 6.22838 155.02 2.32838C154.992 6.23924 155.02 10.1479 155.005 14.0588C154.711 14.0588 154.422 14.061 154.133 14.0632C154.124 9.69794 154.133 5.33272 154.131 0.96968Z" fill="white" stroke="white" stroke-width="0.09375"/>
</g>
<defs>
<clipPath id="clip0">
<rect width="164.783" height="15" fill="white"/>
</clipPath>
</defs>
</svg>
