<svg width="19" height="32" viewBox="0 0 19 32" fill="none" xmlns="http://www.w3.org/2000/svg">
<g clip-path="url(#clip0)">
<path d="M12.3744 28.272H6.81641V29.4078H12.3744V28.272Z" fill="white"/>
<path d="M18.3437 25.814H0.845703V26.9498H18.3437V25.814Z" fill="white"/>
<path d="M15.5989 31.9996H3.32563C2.44535 31.9974 1.60177 31.6467 0.979318 31.0242C0.356863 30.4018 0.00616919 29.5582 0.00390625 28.6779V3.32563C0.00616919 2.44535 0.356863 1.60177 0.979318 0.979318C1.60177 0.356863 2.44535 0.00616919 3.32563 0.00390625H15.5989C16.4792 0.00616919 17.3227 0.356863 17.9452 0.979318C18.5676 1.60177 18.9183 2.44535 18.9206 3.32563V28.6725C18.9195 29.5537 18.5693 30.3984 17.9468 31.022C17.3242 31.6455 16.48 31.9971 15.5989 31.9996V31.9996ZM3.32563 1.13436C2.74483 1.13521 2.18808 1.36639 1.77749 1.77718C1.36691 2.18797 1.13601 2.74483 1.13544 3.32563V28.6725C1.13601 29.2533 1.36691 29.8102 1.77749 30.221C2.18808 30.6318 2.74483 30.863 3.32563 30.8638H15.5989C16.1799 30.8632 16.7369 30.6322 17.1477 30.2214C17.5585 29.8106 17.7896 29.2535 17.7901 28.6725V3.32563C17.7896 2.74465 17.5585 2.18762 17.1477 1.7768C16.7369 1.36598 16.1799 1.13493 15.5989 1.13436H3.32563Z" fill="white"/>
<path d="M8.02137 8.47868C9.37398 8.23281 10.7653 8.30619 12.0846 8.69299C12.1016 8.69844 12.1193 8.70133 12.1371 8.70155C12.1816 8.70074 12.2244 8.6841 12.2578 8.65462C12.2912 8.62514 12.3129 8.58475 12.3193 8.54067C12.3256 8.49659 12.316 8.45169 12.2922 8.41403C12.2685 8.37636 12.2321 8.34838 12.1896 8.3351C10.8143 7.93195 9.36365 7.85636 7.95386 8.11436C7.90512 8.12332 7.86194 8.15126 7.83381 8.19205C7.80568 8.23285 7.7949 8.28314 7.80386 8.33188C7.81281 8.38062 7.84075 8.42381 7.88154 8.45194C7.92233 8.48007 7.97263 8.49085 8.02137 8.48189V8.47868Z" fill="white"/>
<path d="M12.1368 8.83289C12.1063 8.83298 12.076 8.82865 12.0468 8.82003C10.7475 8.4402 9.37752 8.36865 8.04573 8.61108C7.9619 8.6264 7.87541 8.6078 7.80529 8.55938C7.73517 8.51095 7.68714 8.43666 7.67177 8.35284C7.66372 8.31143 7.66412 8.26883 7.67296 8.22758C7.6818 8.18633 7.69889 8.1473 7.7232 8.11282C7.74717 8.07799 7.77777 8.04823 7.81326 8.02525C7.84874 8.00227 7.88841 7.98651 7.93 7.97888C9.3602 7.71845 10.8314 7.79514 12.2268 8.20283C12.3011 8.2245 12.3651 8.27223 12.407 8.33727C12.4489 8.40231 12.466 8.48029 12.455 8.55689C12.4441 8.63349 12.4059 8.70358 12.3474 8.75428C12.289 8.80498 12.2142 8.83289 12.1368 8.83289V8.83289ZM9.60157 8.20069C10.4546 8.20006 11.3033 8.32166 12.1218 8.56179C12.1614 8.56179 12.1807 8.54787 12.1872 8.52644C12.1892 8.51304 12.1867 8.49935 12.1801 8.48752C12.1735 8.47568 12.1632 8.46638 12.1507 8.46107C10.7954 8.0667 9.36684 7.99333 7.97822 8.24676C7.96474 8.24961 7.95286 8.25755 7.94508 8.26893C7.93729 8.2803 7.9342 8.29424 7.93643 8.30784C7.93757 8.31481 7.94015 8.32147 7.94403 8.32738C7.94791 8.33329 7.95298 8.33831 7.95893 8.34213C7.96437 8.34582 7.97049 8.34838 7.97693 8.34966C7.98337 8.35095 7.98999 8.35094 7.99643 8.34963C8.52593 8.25195 9.06314 8.2021 9.60157 8.20069V8.20069Z" fill="white"/>
<path d="M5.75286 10.9254C6.96555 10.1739 8.37164 9.79383 9.79777 9.83191C11.2239 9.86999 12.6077 10.3246 13.7786 11.1397C13.8192 11.1681 13.8695 11.1792 13.9183 11.1706C13.9671 11.162 14.0105 11.1343 14.039 11.0936C14.0674 11.053 14.0785 11.0027 14.0698 10.9539C14.0612 10.9051 14.0335 10.8617 13.9929 10.8333C12.7621 9.97683 11.3078 9.49893 9.80893 9.45838C8.31006 9.41783 6.83204 9.81639 5.55676 10.605C5.53566 10.618 5.51732 10.6349 5.50277 10.655C5.48822 10.675 5.47776 10.6977 5.47199 10.7218C5.46622 10.7459 5.46525 10.7709 5.46913 10.7953C5.47301 10.8198 5.48168 10.8432 5.49462 10.8643C5.50757 10.8854 5.52455 10.9038 5.54459 10.9183C5.56462 10.9329 5.58732 10.9433 5.6114 10.9491C5.63548 10.9549 5.66047 10.9559 5.68492 10.952C5.70938 10.9481 5.73283 10.9394 5.75393 10.9265L5.75286 10.9254Z" fill="white"/>
<path d="M13.8863 11.3099C13.8203 11.3099 13.756 11.2897 13.7019 11.252C12.5529 10.4522 11.1951 10.0057 9.79559 9.96764C8.39609 9.92956 7.01599 10.3015 5.82517 11.0377C5.75256 11.0826 5.66509 11.0968 5.582 11.0772C5.4989 11.0576 5.42701 11.0058 5.38211 10.9332C5.3372 10.8606 5.32298 10.7732 5.34258 10.6901C5.36217 10.607 5.41397 10.5351 5.48658 10.4902C6.78415 9.68751 8.28813 9.28187 9.81332 9.32318C11.3385 9.3645 12.8183 9.85096 14.0706 10.7227C14.1267 10.7618 14.1688 10.8179 14.1909 10.8827C14.2129 10.9475 14.2137 11.0176 14.1932 11.0829C14.1726 11.1481 14.1317 11.2051 14.0765 11.2456C14.0213 11.286 13.9547 11.3078 13.8863 11.3077V11.3099ZM9.60016 9.69616C11.1217 9.69286 12.6073 10.1591 13.8541 11.0313C13.8655 11.0392 13.8795 11.0423 13.8932 11.0399C13.9068 11.0375 13.919 11.0297 13.927 11.0184C13.9337 11.0067 13.9361 10.993 13.9337 10.9797C13.9314 10.9664 13.9244 10.9543 13.9141 10.9456C12.65 10.0605 11.1433 9.58749 9.60016 9.59114C8.19743 9.59159 6.82248 9.98226 5.62908 10.7195C5.61831 10.7276 5.61071 10.7392 5.60758 10.7523C5.60445 10.7654 5.60599 10.7792 5.61194 10.7913C5.61545 10.7972 5.62013 10.8023 5.62567 10.8064C5.63121 10.8105 5.63751 10.8134 5.6442 10.815C5.6509 10.8166 5.65785 10.8168 5.66464 10.8157C5.67142 10.8146 5.67792 10.8121 5.68373 10.8084V10.8084C6.86114 10.0804 8.21798 9.69448 9.60229 9.69401L9.60016 9.69616Z" fill="white"/>
<path d="M14.432 13.2793C13.843 12.5392 13.0919 11.9444 12.2365 11.5409C11.3811 11.1374 10.4444 10.9359 9.49872 10.9521C8.55307 10.9682 7.6238 11.2016 6.78269 11.6341C5.94158 12.0666 5.21115 12.6867 4.64787 13.4464C4.6333 13.4661 4.62277 13.4885 4.61685 13.5123C4.61094 13.5361 4.60976 13.5608 4.61339 13.585C4.61702 13.6092 4.62539 13.6325 4.63802 13.6535C4.65064 13.6745 4.66728 13.6928 4.68698 13.7073C4.70668 13.7219 4.72906 13.7325 4.75283 13.7384C4.77661 13.7443 4.80131 13.7455 4.82553 13.7418C4.84976 13.7382 4.87304 13.7298 4.89403 13.7172C4.91503 13.7046 4.93333 13.6879 4.9479 13.6682C5.74653 12.5805 6.9042 11.8104 8.21605 11.4941C8.66981 11.3826 9.13533 11.3261 9.60259 11.3259C10.475 11.3229 11.3367 11.518 12.1226 11.8967C12.9085 12.2754 13.5982 12.8276 14.1394 13.5118C14.1703 13.5506 14.2152 13.5755 14.2645 13.5812C14.3137 13.5868 14.3632 13.5726 14.402 13.5418C14.4407 13.511 14.4657 13.466 14.4713 13.4167C14.477 13.3675 14.4628 13.3181 14.432 13.2793V13.2793Z" fill="white"/>
<path d="M4.79741 13.8798C4.73771 13.88 4.67911 13.8636 4.6282 13.8324C4.57729 13.8013 4.53607 13.7565 4.50915 13.7033C4.48223 13.65 4.47068 13.5902 4.47579 13.5308C4.48091 13.4713 4.50248 13.4144 4.53811 13.3665C5.40698 12.1828 6.66688 11.345 8.09449 11.0016C9.26559 10.713 10.4949 10.7662 11.6367 11.1549C12.7785 11.5437 13.7848 12.2517 14.5365 13.195V13.195C14.5895 13.2618 14.6138 13.3469 14.604 13.4316C14.5943 13.5163 14.5513 13.5937 14.4845 13.6467C14.4177 13.6997 14.3326 13.724 14.2479 13.7142C14.1632 13.7045 14.0859 13.6615 14.0329 13.5947C13.4923 12.916 12.803 12.3706 12.0182 12.0006C11.2334 11.6306 10.3741 11.4458 9.50652 11.4606C8.63899 11.4754 7.78645 11.6894 7.01472 12.086C6.243 12.4826 5.57273 13.0512 5.05565 13.748C5.02593 13.7886 4.98708 13.8217 4.94223 13.8446C4.89737 13.8675 4.84776 13.8795 4.79741 13.8798V13.8798ZM9.60211 11.0874C9.11574 11.0876 8.63116 11.1462 8.15877 11.262C6.79269 11.5914 5.58718 12.3934 4.75561 13.5261C4.75142 13.5317 4.74837 13.538 4.74664 13.5447C4.74491 13.5515 4.74453 13.5585 4.74553 13.5654C4.74653 13.5722 4.74888 13.5788 4.75245 13.5848C4.75602 13.5908 4.76073 13.596 4.76633 13.6001C4.77148 13.6051 4.77772 13.6088 4.78456 13.6109C4.7914 13.6131 4.79864 13.6136 4.80571 13.6124C4.81279 13.6113 4.81951 13.6085 4.82532 13.6043C4.83113 13.6001 4.83588 13.5946 4.8392 13.5883C5.65653 12.4752 6.84106 11.6869 8.18342 11.3627C8.64773 11.2488 9.12402 11.1909 9.60211 11.1902C10.4948 11.1873 11.3764 11.3871 12.1805 11.7747C12.9846 12.1623 13.6902 12.7275 14.244 13.4276C14.2529 13.4382 14.2655 13.4451 14.2793 13.4469C14.2932 13.4481 14.3071 13.4439 14.3179 13.4351C14.3285 13.4264 14.3354 13.414 14.337 13.4004C14.3386 13.3868 14.3348 13.3731 14.3265 13.3622C13.7625 12.6502 13.0443 12.0755 12.2259 11.6814C11.4076 11.2874 10.5104 11.0842 9.60211 11.0874V11.0874Z" fill="white"/>
<path d="M12.4057 13.3789C11.5978 12.7712 10.6135 12.4442 9.60254 12.4478C8.41251 12.4479 7.26726 12.9015 6.39992 13.7163C5.53257 14.5311 5.00833 15.6458 4.93392 16.8335C4.93099 16.8831 4.94784 16.9318 4.98079 16.969C5.01373 17.0062 5.06008 17.0287 5.10965 17.0318H5.12037C5.16801 17.0318 5.21388 17.0137 5.24855 16.981C5.28322 16.9483 5.30407 16.9036 5.30681 16.856C5.37421 15.7633 5.85599 14.7374 6.65387 13.9877C7.45174 13.2381 8.50559 12.821 9.60041 12.8217C10.5287 12.817 11.4331 13.1151 12.1766 13.6709C12.9201 14.2266 13.4621 15.0097 13.7204 15.9013C13.7364 15.9468 13.7692 15.9844 13.8122 16.0063C13.8551 16.0282 13.9048 16.0327 13.951 16.0189C13.9972 16.0051 14.0363 15.9741 14.0602 15.9322C14.0841 15.8904 14.091 15.8409 14.0794 15.7942C13.7981 14.8289 13.2107 13.9812 12.4057 13.3789V13.3789Z" fill="white"/>
<path d="M5.12282 17.1672C5.07893 17.1673 5.0355 17.1584 4.99518 17.1411C4.95487 17.1237 4.91853 17.0983 4.88841 17.0664C4.85829 17.0344 4.83504 16.9967 4.82006 16.9554C4.80509 16.9142 4.79873 16.8703 4.80136 16.8265C4.8553 15.9606 5.14234 15.1253 5.63209 14.4092C6.12185 13.6931 6.7961 13.1226 7.58349 12.7583C8.37088 12.394 9.24212 12.2493 10.105 12.3396C10.9679 12.4299 11.7903 12.7518 12.4852 13.2712V13.2712C13.3159 13.8896 13.9223 14.762 14.2125 15.756C14.2263 15.797 14.2316 15.8403 14.2283 15.8834C14.2249 15.9264 14.2129 15.9684 14.193 16.0067C14.173 16.045 14.1456 16.0789 14.1122 16.1064C14.0789 16.1339 14.0404 16.1543 13.9989 16.1666C13.9575 16.1788 13.914 16.1826 13.8711 16.1777C13.8282 16.1727 13.7867 16.1592 13.7492 16.1379C13.7116 16.1166 13.6787 16.0879 13.6525 16.0536C13.6262 16.0193 13.6072 15.98 13.5964 15.9382C13.3462 15.074 12.8208 14.3149 12.1001 13.7764C11.3794 13.2378 10.5026 12.9491 9.60285 12.954C8.54268 12.9549 7.52265 13.3596 6.75017 14.0857C5.97768 14.8118 5.51074 15.8048 5.44427 16.8629C5.43988 16.9452 5.40408 17.0226 5.34426 17.0792C5.28445 17.1358 5.20518 17.1674 5.12282 17.1672V17.1672ZM9.60285 12.5822C9.23672 12.5828 8.87199 12.627 8.51634 12.714C7.93709 12.8551 7.39158 13.1097 6.91135 13.463C6.43113 13.8164 6.02572 14.2614 5.71858 14.7724C5.34104 15.4008 5.12051 16.1109 5.07566 16.8426C5.07508 16.8563 5.07992 16.8697 5.08914 16.88C5.09835 16.8902 5.11122 16.8964 5.12496 16.8972V16.8972C5.13866 16.8978 5.15206 16.8932 5.16242 16.8842C5.17279 16.8752 5.17933 16.8626 5.18068 16.849C5.24502 15.8084 5.67386 14.8238 6.39193 14.068C7.11 13.3121 8.07138 12.8334 9.10728 12.7159C10.1432 12.5984 11.1874 12.8495 12.0565 13.4253C12.9257 14.001 13.5642 14.8646 13.86 15.8643C13.8612 15.8717 13.8639 15.8787 13.8681 15.885C13.8722 15.8912 13.8776 15.8965 13.884 15.9005C13.8903 15.9044 13.8974 15.907 13.9049 15.908C13.9123 15.909 13.9198 15.9084 13.927 15.9062C13.9342 15.9041 13.9408 15.9004 13.9464 15.8955C13.9521 15.8906 13.9566 15.8845 13.9597 15.8777C13.9628 15.8709 13.9644 15.8635 13.9644 15.856C13.9644 15.8485 13.9628 15.8411 13.9597 15.8343C13.6835 14.8946 13.1101 14.0698 12.3256 13.4834C11.5411 12.8971 10.5876 12.5809 9.60821 12.5822H9.60285Z" fill="white"/>
<path d="M9.60096 13.9424C9.11902 13.9426 8.64344 14.0524 8.21017 14.2634C7.77689 14.4745 7.39728 14.7812 7.1 15.1606C6.80273 15.5399 6.59559 15.9819 6.49424 16.453C6.39289 16.9242 6.39998 17.4122 6.51498 17.8802C6.55891 18.057 6.57606 18.4106 6.40783 19.0889C6.40191 19.1128 6.40077 19.1376 6.40447 19.1618C6.40817 19.1861 6.41664 19.2095 6.42938 19.2305C6.44213 19.2515 6.45891 19.2698 6.47875 19.2843C6.49859 19.2988 6.5211 19.3092 6.54499 19.315C6.55995 19.3166 6.57502 19.3166 6.58998 19.315C6.63172 19.3148 6.67221 19.3007 6.70501 19.2748C6.73781 19.249 6.76106 19.213 6.77108 19.1725C6.92002 18.5692 6.95645 18.101 6.87823 17.7859C6.70063 17.0638 6.81701 16.3008 7.20178 15.6644C7.58655 15.0281 8.20824 14.5706 8.9302 14.3924C9.14975 14.3387 9.37493 14.3113 9.60096 14.311C10.2293 14.3099 10.8398 14.5202 11.334 14.9082C11.8283 15.2961 12.1777 15.8391 12.3259 16.4497C12.4584 17.006 12.5229 17.5763 12.5177 18.1481C12.5177 18.1977 12.5373 18.2452 12.5722 18.2803C12.6071 18.3155 12.6546 18.3353 12.7041 18.3356V18.3356C12.7536 18.3354 12.8009 18.3157 12.836 18.2808C12.8711 18.2459 12.8911 18.1986 12.8916 18.1492C12.8972 17.547 12.8288 16.9464 12.688 16.3608C12.5193 15.6699 12.1231 15.0557 11.5632 14.6171C11.0033 14.1785 10.3122 13.9408 9.60096 13.9424V13.9424Z" fill="white"/>
<path d="M6.59096 19.4547C6.54222 19.4548 6.49411 19.4438 6.45025 19.4225C6.40639 19.4013 6.36794 19.3703 6.3378 19.332C6.30766 19.2937 6.28662 19.2491 6.27627 19.2015C6.26593 19.1539 6.26655 19.1045 6.27808 19.0571C6.44738 18.3703 6.41845 18.0456 6.38523 17.9138C6.26734 17.4871 6.23618 17.0411 6.29362 16.6021C6.35106 16.1631 6.49593 15.7401 6.71965 15.3581C6.94338 14.976 7.24142 14.6427 7.59617 14.3779C7.95091 14.113 8.35515 13.9219 8.78501 13.816C9.21486 13.71 9.6616 13.6913 10.0988 13.761C10.536 13.8306 10.9548 13.9872 11.3305 14.2215C11.7061 14.4558 12.031 14.763 12.2858 15.125C12.5407 15.487 12.7204 15.8964 12.8144 16.329C12.9573 16.9255 13.0268 17.5373 13.0212 18.1506C13.0212 18.2359 12.9873 18.3177 12.927 18.3779C12.8667 18.4382 12.785 18.4721 12.6997 18.4721C12.6145 18.4721 12.5327 18.4382 12.4724 18.3779C12.4121 18.3177 12.3783 18.2359 12.3783 18.1506C12.3839 17.59 12.3209 17.0308 12.1907 16.4855C12.1069 16.1451 11.9568 15.8246 11.7491 15.5422C11.5413 15.2598 11.28 15.0211 10.98 14.8397C10.68 14.6583 10.3472 14.5378 10.0006 14.485C9.65406 14.4322 9.30049 14.4482 8.9601 14.5321C8.61971 14.616 8.29918 14.7661 8.0168 14.9738C7.73441 15.1815 7.4957 15.4429 7.31431 15.7429C7.13293 16.0429 7.0124 16.3756 6.95962 16.7222C6.90684 17.0688 6.92284 17.4224 7.00671 17.7627C7.09029 18.1003 7.05386 18.5889 6.89956 19.2136C6.88186 19.2822 6.84201 19.343 6.7862 19.3866C6.7304 19.4301 6.66177 19.4541 6.59096 19.4547V19.4547ZM9.60194 14.0778C9.35644 14.0782 9.11186 14.1077 8.87331 14.1656C8.09002 14.3592 7.41562 14.8559 6.99831 15.5464C6.581 16.237 6.45491 17.065 6.64775 17.8485C6.71633 18.1271 6.68097 18.5546 6.5406 19.1214C6.53922 19.1347 6.54224 19.1481 6.5492 19.1596C6.55617 19.171 6.5667 19.1798 6.57917 19.1847C6.62096 19.1847 6.63703 19.1697 6.64239 19.1461C6.78597 18.5642 6.8224 18.1185 6.74954 17.8238C6.56311 17.0672 6.6849 16.2675 7.08811 15.6006C7.49131 14.9338 8.14292 14.4544 8.89956 14.268C9.65621 14.0815 10.4559 14.2033 11.1228 14.6065C11.7896 15.0097 12.269 15.6613 12.4554 16.418C12.5917 16.9846 12.6575 17.5658 12.6515 18.1485C12.6529 18.1619 12.6589 18.1745 12.6684 18.1841C12.678 18.1936 12.6906 18.1996 12.704 18.201C12.7179 18.201 12.7313 18.1955 12.7411 18.1856C12.751 18.1758 12.7565 18.1624 12.7565 18.1485C12.7623 17.5575 12.6954 16.968 12.5572 16.3933C12.3957 15.7318 12.0165 15.1439 11.4805 14.7239C10.9445 14.3039 10.2829 14.0764 9.60194 14.0778V14.0778Z" fill="white"/>
<path d="M9.6016 15.4341C9.34639 15.4342 9.09455 15.4923 8.86512 15.604C8.63568 15.7158 8.43466 15.8782 8.27725 16.0791C8.11983 16.28 8.01015 16.514 7.95649 16.7635C7.90284 17.013 7.9066 17.2715 7.96752 17.5193C8.10682 18.0818 8.03074 18.8694 7.74358 19.8606C7.72995 19.9083 7.73569 19.9595 7.75956 20.003C7.78343 20.0465 7.82351 20.0789 7.87109 20.0931C7.88823 20.0977 7.90586 20.1002 7.9236 20.1006C7.96399 20.1004 8.00322 20.0871 8.03546 20.0628C8.0677 20.0384 8.09123 20.0043 8.10253 19.9656C8.40899 18.9101 8.48507 18.0572 8.33077 17.4293C8.24796 17.0922 8.30234 16.7361 8.48196 16.4391C8.66159 16.1422 8.95176 15.9287 9.28872 15.8456C9.39118 15.8208 9.49619 15.8082 9.6016 15.808C9.89433 15.8076 10.1787 15.9054 10.4092 16.086C10.6397 16.2665 10.8028 16.5192 10.8724 16.8035C11.0653 17.59 11.0728 18.5083 10.8917 19.5337C10.883 19.5825 10.8941 19.6327 10.9224 19.6733C10.9508 19.7139 10.9941 19.7415 11.0428 19.7502C11.0915 19.7589 11.1417 19.7478 11.1823 19.7195C11.2229 19.6911 11.2506 19.6478 11.2593 19.5991C11.45 18.5276 11.4414 17.5514 11.2346 16.7135C11.1452 16.348 10.9357 16.0232 10.6395 15.7912C10.3434 15.5592 9.97781 15.4334 9.6016 15.4341V15.4341Z" fill="white"/>
<path d="M7.92271 20.239C7.89224 20.2391 7.86191 20.2348 7.83269 20.2261C7.75188 20.2014 7.68408 20.1457 7.64397 20.0713C7.60386 19.9969 7.59467 19.9097 7.61838 19.8286C7.90019 18.8642 7.97521 18.0949 7.84127 17.5559C7.76456 17.318 7.73762 17.0668 7.76216 16.8181C7.7867 16.5693 7.86218 16.3283 7.98389 16.1099C8.10561 15.8916 8.27097 15.7006 8.46966 15.549C8.66836 15.3973 8.89614 15.2881 9.13884 15.2283C9.38154 15.1684 9.63397 15.1592 9.88041 15.2011C10.1268 15.243 10.362 15.3352 10.5713 15.4719C10.7805 15.6086 10.9594 15.787 11.0968 15.9958C11.2342 16.2046 11.3271 16.4395 11.3698 16.6858C11.5841 17.543 11.5905 18.5321 11.3966 19.6272C11.3791 19.7081 11.3312 19.7791 11.2626 19.8255C11.1941 19.872 11.1103 19.8902 11.0287 19.8764C10.9471 19.8626 10.874 19.8178 10.8245 19.7514C10.7751 19.685 10.7532 19.6021 10.7633 19.52C10.9412 18.5128 10.9348 17.6127 10.7462 16.8412C10.7211 16.6796 10.6627 16.5251 10.5747 16.3873C10.4867 16.2495 10.371 16.1316 10.235 16.0409C10.0989 15.9503 9.94552 15.8889 9.78449 15.8608C9.62346 15.8326 9.45833 15.8382 9.2996 15.8773C9.14086 15.9164 8.99199 15.9881 8.86245 16.0878C8.7329 16.1875 8.62552 16.3131 8.54712 16.4566C8.46872 16.6 8.42102 16.7582 8.40705 16.9211C8.39308 17.084 8.41314 17.248 8.46596 17.4027C8.62669 18.0531 8.54954 18.9307 8.23665 20.0086C8.21674 20.0761 8.17524 20.1351 8.11853 20.1768C8.06182 20.2184 7.99303 20.2402 7.92271 20.239V20.239ZM9.6007 15.5725C9.36615 15.5732 9.13483 15.6271 8.92416 15.7302C8.71349 15.8333 8.52897 15.9829 8.38452 16.1677C8.24008 16.3525 8.13946 16.5677 8.09027 16.797C8.04109 17.0263 8.04461 17.2638 8.10057 17.4916C8.24522 18.0777 8.16915 18.8846 7.87555 19.9025C7.87358 19.9092 7.87292 19.9161 7.87363 19.923C7.87434 19.9298 7.8764 19.9365 7.87968 19.9426C7.88297 19.9486 7.88742 19.954 7.89278 19.9583C7.89814 19.9627 7.9043 19.9659 7.91092 19.9679C7.92422 19.9704 7.93797 19.9683 7.94987 19.9618C7.96178 19.9554 7.9711 19.945 7.97628 19.9325C8.27524 18.8996 8.35131 18.0702 8.20237 17.468C8.11086 17.0963 8.17077 16.7035 8.36891 16.3759C8.56704 16.0484 8.88718 15.813 9.25889 15.7215C9.63061 15.6299 10.0234 15.6898 10.351 15.888C10.6785 16.0861 10.914 16.4063 11.0055 16.778C11.2037 17.5827 11.2101 18.5203 11.0258 19.5639C11.0236 19.5777 11.0269 19.5918 11.0349 19.6032C11.0429 19.6146 11.055 19.6224 11.0687 19.625C11.0825 19.6272 11.0965 19.624 11.1079 19.616C11.1193 19.608 11.1272 19.5958 11.1298 19.5822C11.3162 18.5246 11.3087 17.572 11.1062 16.7523C11.0243 16.415 10.8312 16.1152 10.5581 15.9012C10.285 15.6872 9.94771 15.5714 9.6007 15.5725V15.5725Z" fill="white"/>
<path d="M9.5588 16.9402C9.51828 16.9502 9.48226 16.9734 9.45644 17.0062C9.43063 17.039 9.41649 17.0795 9.41628 17.1212C9.4147 17.1362 9.4147 17.1513 9.41628 17.1663C9.4911 17.4847 9.52708 17.811 9.52343 18.1381C9.51221 18.7843 9.41822 19.4264 9.24376 20.0487C9.24166 20.0647 9.24166 20.0809 9.24376 20.0969C9.24379 20.1382 9.25746 20.1783 9.28265 20.2111C9.30784 20.2438 9.34314 20.2673 9.38306 20.278C9.39871 20.2801 9.41456 20.2801 9.43021 20.278C9.47156 20.2781 9.51181 20.2645 9.54459 20.2393C9.57737 20.2141 9.60084 20.1787 9.6113 20.1387C9.79365 19.4848 9.8916 18.8104 9.90275 18.1317C9.90602 17.7745 9.86572 17.4183 9.78274 17.0709C9.76991 17.0241 9.73929 16.9843 9.69743 16.9599C9.65557 16.9354 9.6058 16.9283 9.5588 16.9402V16.9402Z" fill="white"/>
<path d="M9.43474 20.418C9.40723 20.4182 9.37984 20.4146 9.3533 20.4073C9.28458 20.3893 9.22376 20.3491 9.18033 20.2929C9.13691 20.2366 9.11334 20.1676 9.11328 20.0966C9.11316 20.0691 9.11676 20.0417 9.124 20.0151C9.29468 19.4035 9.38687 18.7727 9.39831 18.1378C9.40036 17.8214 9.36439 17.5059 9.29116 17.1981C9.27077 17.1154 9.28402 17.028 9.32802 16.9551C9.37202 16.8822 9.44315 16.8297 9.52582 16.8092V16.8092C9.60851 16.7888 9.69591 16.802 9.76884 16.846C9.84177 16.89 9.89426 16.9612 9.91478 17.0438C9.9997 17.4018 10.0411 17.7688 10.038 18.1368C10.0263 18.8252 9.92688 19.5093 9.74226 20.1727C9.72542 20.2418 9.68609 20.3035 9.63043 20.3479C9.57477 20.3923 9.50594 20.417 9.43474 20.418ZM9.60618 17.0685H9.59332C9.58208 17.0713 9.5721 17.0778 9.56492 17.0869C9.55775 17.096 9.5538 17.1072 9.55368 17.1188C9.63191 17.4521 9.67041 17.7934 9.66834 18.1357C9.65585 18.7937 9.56044 19.4475 9.38438 20.0816C9.38165 20.0949 9.38397 20.1088 9.39091 20.1204C9.39784 20.1321 9.40889 20.1408 9.42188 20.1448C9.45724 20.1448 9.47974 20.1309 9.4851 20.1073C9.66456 19.4647 9.76107 18.8017 9.77227 18.1346C9.77513 17.7883 9.73627 17.443 9.65654 17.106C9.65506 17.0993 9.65221 17.0929 9.64815 17.0874C9.64409 17.0819 9.63892 17.0772 9.63297 17.0738C9.6237 17.0692 9.61327 17.0673 9.60296 17.0685H9.60618Z" fill="white"/>
</g>
<defs>
<clipPath id="clip0">
<rect width="18.9263" height="32" fill="white"/>
</clipPath>
</defs>
</svg>
