<svg width="40" height="40" viewBox="0 0 40 40" fill="none" xmlns="http://www.w3.org/2000/svg">
<path d="M23.8775 14.4111C23.8775 14.6253 23.8141 14.8347 23.6951 15.0128C23.5762 15.191 23.4074 15.3299 23.2096 15.412C23.0117 15.4942 22.7938 15.5159 22.5837 15.4743C22.3736 15.4328 22.1806 15.33 22.0289 15.1788C21.8772 15.0276 21.7738 14.8348 21.7315 14.6249C21.6893 14.4149 21.7101 14.1971 21.7916 13.999C21.873 13.8009 22.0112 13.6314 22.1889 13.5119C22.3667 13.3923 22.5761 13.3281 22.7902 13.3274C23.0781 13.327 23.3543 13.4409 23.5582 13.6442C23.7621 13.8474 23.8769 14.1232 23.8775 14.4111V14.4111ZM28.3702 32.2611C28.1896 32.2603 28.0135 32.2027 27.8674 32.0964C27.7213 31.9901 27.6125 31.8406 27.5561 31.669C27.4997 31.4973 27.4986 31.3123 27.5532 31.1401C27.6077 30.9679 27.7151 30.8172 27.8601 30.7094C30.2512 28.9554 31.9865 26.4516 32.7896 23.5969C33.5928 20.7423 33.4174 17.7009 32.2916 14.9574C31.1657 12.214 29.1541 9.92619 26.5772 8.45861C24.0003 6.99102 21.0067 6.42803 18.0727 6.85936V25.6401C18.0727 25.8679 17.9822 26.0863 17.8211 26.2473C17.6601 26.4084 17.4417 26.4989 17.2139 26.4989C16.9862 26.4989 16.7678 26.4084 16.6068 26.2473C16.4457 26.0863 16.3552 25.8679 16.3552 25.6401V6.13788C16.3545 5.93914 16.423 5.74635 16.5489 5.59255C16.6748 5.43875 16.8502 5.3335 17.0451 5.29486C20.3944 4.62081 23.8735 5.1103 26.9068 6.68235C29.9401 8.2544 32.3458 10.8148 33.726 13.9401C35.1063 17.0653 35.3781 20.568 34.4969 23.8689C33.6157 27.1697 31.6341 30.0709 28.88 32.0924C28.7327 32.2022 28.5539 32.2609 28.3702 32.2596V32.2611ZM20.0001 35.0031C16.8387 35.0041 13.758 34.0058 11.1978 32.151C8.63772 30.2962 6.72902 27.6797 5.74495 24.6753C4.76089 21.671 4.75156 18.4325 5.71822 15.4225C6.68488 12.4125 8.57818 9.78498 11.1275 7.91538C11.3111 7.78012 11.5411 7.72332 11.7666 7.7575C11.992 7.79167 12.1945 7.91402 12.3298 8.09761C12.4651 8.28121 12.5218 8.51105 12.4876 8.73652C12.4534 8.96198 12.331 9.16462 12.1474 9.29989C9.88854 10.9542 8.21089 13.2804 7.35372 15.9458C6.49655 18.6112 6.5038 21.4794 7.37496 24.1403C8.24611 26.8012 9.93629 29.1185 12.2038 30.7609C14.4713 32.4033 17.2002 33.2868 20.0001 33.2849C20.6476 33.2846 21.2943 33.238 21.9351 33.1454V20.8229C21.9351 20.5951 22.0257 20.3767 22.1867 20.2157C22.3478 20.0546 22.5661 19.9641 22.7939 19.9641C23.0217 19.9641 23.24 20.0546 23.4011 20.2157C23.5621 20.3767 23.6527 20.5951 23.6527 20.8229V33.8677C23.6518 34.066 23.5827 34.2579 23.4571 34.4114C23.3315 34.5649 23.157 34.6705 22.9627 34.7106C21.9872 34.9052 20.9948 35.0032 20.0001 35.0031V35.0031Z" fill="white"/>
</svg>
