<svg width="40" height="40" viewBox="0 0 40 40" fill="none" xmlns="http://www.w3.org/2000/svg">
<g clip-path="url(#clip0)">
<path d="M4.16732 7.5H35.834C37.6673 7.5 39.1673 9 39.1673 10.8333V25.8333C39.1673 27.6667 37.6673 29.1667 35.834 29.1667H4.16732C2.33398 29.1667 0.833984 27.6667 0.833984 25.8333V10.8333C0.833984 9 2.33398 7.5 4.16732 7.5Z" stroke="white" stroke-width="2"/>
<path d="M0 32.5H40" stroke="white" stroke-width="2"/>
<path d="M4.16602 20.7498H5.83268C7.16602 20.7498 8.24935 19.6665 8.24935 18.3332C8.24935 16.9998 7.16602 15.9165 5.83268 15.9165H4.16602V20.7498ZM5.83268 16.6665C6.58268 16.6665 7.33268 17.3332 7.33268 18.3332C7.33268 19.3332 6.58268 19.9998 5.83268 19.9998H5.08268V16.6665H5.83268Z" fill="white"/>
<path d="M10.5007 20.7498V15.9165H9.58398V20.7498H10.5007Z" fill="white"/>
<path d="M16.084 16.3335C15.834 16.0835 15.2507 15.8335 14.4173 15.8335C12.834 15.8335 11.834 16.9168 11.834 18.3335C11.834 20.0002 12.9173 20.8335 14.1673 20.8335C14.7507 20.8335 15.334 20.5835 15.5007 20.2502H15.584V20.8335H16.4173V18.3335H14.5007V19.0835H15.5007V19.5835C15.2507 19.9168 14.9173 20.0835 14.334 20.0835C13.334 20.0835 12.7507 19.4168 12.7507 18.4168C12.7507 17.5002 13.4173 16.7502 14.5007 16.7502C15.2507 16.7502 15.6673 17.0002 15.9173 17.3335H16.084V16.3335Z" fill="white"/>
<path d="M18.8327 20.7498V15.9165H17.916V20.7498H18.8327Z" fill="white"/>
<path d="M20.5 20.7498H22.1667C23.5 20.7498 24.5833 19.6665 24.5833 18.3332C24.5833 16.9998 23.5 15.9165 22.1667 15.9165H20.5V20.7498ZM22.1667 16.6665C22.9167 16.6665 23.6667 17.3332 23.6667 18.3332C23.6667 19.3332 23 19.9998 22.1667 19.9998H21.4167V16.6665H22.1667Z" fill="white"/>
<path d="M28.166 20.8335C29.5827 20.8335 30.666 19.7502 30.666 18.3335C30.666 16.9168 29.5827 15.8335 28.166 15.8335C26.7493 15.8335 25.666 16.9168 25.666 18.3335C25.666 19.7502 26.7493 20.8335 28.166 20.8335ZM28.166 20.0002C27.2493 20.0002 26.666 19.2502 26.666 18.3335C26.666 17.4168 27.3327 16.6668 28.166 16.6668C29.0827 16.6668 29.7494 17.4168 29.7494 18.3335C29.7494 19.2502 29.0827 20.0002 28.166 20.0002Z" fill="white"/>
<path d="M35.8333 16.2502C35.5833 16.0002 35.0833 15.8335 34.25 15.8335C32.8333 15.8335 31.75 17.0002 31.75 18.3335C31.75 19.8335 32.75 20.8335 34.25 20.8335C35.0833 20.8335 35.5 20.5835 35.8333 20.4168V19.5002H35.6667C35.3333 19.8335 34.9167 20.0002 34.3333 20.0002C33.3333 20.0002 32.75 19.2502 32.75 18.4168C32.75 17.5002 33.3333 16.7502 34.3333 16.7502C35 16.7502 35.4167 17.0002 35.6667 17.2502H35.8333V16.2502Z" fill="white"/>
</g>
<defs>
<clipPath id="clip0">
<rect width="40" height="40" fill="white"/>
</clipPath>
</defs>
</svg>
