<svg width="36" height="36" viewBox="0 0 36 36" fill="none" xmlns="http://www.w3.org/2000/svg">
<circle cx="18" cy="18" r="14" fill="#0054D4"/>
<path d="M23.6265 13.4601L22.5391 12.3726C22.0422 11.8758 21.2339 11.8758 20.737 12.3726C20.2692 12.8405 13.1242 19.9861 12.6467 20.4636C12.5958 20.5144 12.5617 20.582 12.5496 20.6481L12.0059 23.5844C11.9848 23.6982 12.0211 23.8151 12.103 23.897C12.1849 23.979 12.3019 24.0152 12.4156 23.9941L15.3516 23.4503C15.4194 23.4377 15.4861 23.4033 15.5361 23.3532L23.6265 15.2623C24.1245 14.7643 24.1245 13.9582 23.6265 13.4601ZM12.7903 23.2096L13.1192 21.4334L14.5664 22.8806L12.7903 23.2096ZM15.2876 22.6074L13.3924 20.7122L20.3114 13.7927L22.2065 15.688L15.2876 22.6074ZM23.1293 14.7651L22.7037 15.1908L20.8086 13.2955L21.2342 12.8699C21.4568 12.6472 21.8192 12.6471 22.0419 12.8699L23.1293 13.9574C23.3525 14.1806 23.3525 14.5419 23.1293 14.7651Z" fill="white"/>
</svg>
