<svg width="32" height="32" viewBox="0 0 32 32" fill="none" xmlns="http://www.w3.org/2000/svg">
<g clip-path="url(#clip0)">
<path d="M27.5553 0H4.44418C4.1171 0 3.85156 0.265451 3.85156 0.592622V31.4075C3.85156 31.7345 4.11701 32.0001 4.44418 32.0001H27.5553C27.8824 32.0001 28.1479 31.7346 28.1479 31.4075V0.592622C28.1479 0.265451 27.8824 0 27.5553 0ZM26.9627 30.8148H5.03681V1.18516H26.9628V30.8148H26.9627Z" fill="#0054D4"/>
<path d="M22.8144 4H13.3329C13.0058 4 12.7402 4.26545 12.7402 4.59262C12.7402 4.9198 13.0057 5.18525 13.3329 5.18525H22.8144C23.1415 5.18525 23.407 4.9198 23.407 4.59262C23.407 4.26545 23.1415 4 22.8144 4Z" fill="#0054D4"/>
<path d="M22.8148 11.8516H8.59262C8.26554 11.8516 8 12.117 8 12.4442C8 12.7714 8.26545 13.0368 8.59262 13.0368H22.8148C23.1419 13.0368 23.4075 12.7714 23.4075 12.4442C23.4074 12.1171 23.1419 11.8516 22.8148 11.8516Z" fill="#0054D4"/>
<path d="M22.8148 15.4072H8.59262C8.26554 15.4072 8 15.6727 8 15.9998C8 16.327 8.26545 16.5925 8.59262 16.5925H22.8148C23.1419 16.5925 23.4075 16.327 23.4075 15.9998C23.4075 15.6727 23.1419 15.4072 22.8148 15.4072Z" fill="#0054D4"/>
<path d="M22.8148 18.9629H8.59262C8.26554 18.9629 8 19.2283 8 19.5555C8 19.8827 8.26545 20.1481 8.59262 20.1481H22.8148C23.1419 20.1481 23.4075 19.8827 23.4075 19.5555C23.4075 19.2283 23.1419 18.9629 22.8148 18.9629Z" fill="#0054D4"/>
<path d="M22.8148 22.5186H8.59262C8.26554 22.5186 8 22.784 8 23.1112C8 23.4383 8.26545 23.7038 8.59262 23.7038H22.8148C23.1419 23.7038 23.4075 23.4383 23.4075 23.1112C23.4075 22.784 23.1419 22.5186 22.8148 22.5186Z" fill="#0054D4"/>
<path d="M13.3333 26.0742H8.59262C8.26554 26.0742 8 26.3397 8 26.6668C8 26.994 8.26545 27.2595 8.59262 27.2595H13.3333C13.6604 27.2595 13.926 26.994 13.926 26.6668C13.926 26.3397 13.6604 26.0742 13.3333 26.0742Z" fill="#0054D4"/>
</g>
<defs>
<clipPath id="clip0">
<rect width="32" height="32" fill="white"/>
</clipPath>
</defs>
</svg>
