<svg width="32" height="32" viewBox="0 0 32 32" fill="none" xmlns="http://www.w3.org/2000/svg">
<path d="M27.3333 8H20.6667C20.2987 8 20 7.7 20 7.33331V0.666687C20 0.298687 19.7013 0 19.3333 0H6C4.89731 0 4 0.897313 4 2V30C4 31.1027 4.89731 32 6 32H26C27.1027 32 28 31.1027 28 30V8.66669C28 8.29869 27.7013 8 27.3333 8ZM26.6667 30C26.6667 30.3667 26.368 30.6667 26 30.6667H6C5.632 30.6667 5.33331 30.3667 5.33331 30V2C5.33331 1.63331 5.632 1.33331 6 1.33331H18.6667V7.33331C18.6667 8.436 19.564 9.33331 20.6667 9.33331H26.6667V30V30Z" fill="#0054D4"/>
<path d="M27.8037 8.19598L19.8037 0.195977C19.5437 -0.0640235 19.121 -0.0640235 18.861 0.195977C18.601 0.455977 18.601 0.878665 18.861 1.13866L26.861 9.13867C26.9917 9.26798 27.1623 9.33336 27.333 9.33336C27.5037 9.33336 27.6743 9.26805 27.8037 9.13867C28.0637 8.87867 28.0637 8.45598 27.8037 8.19598Z" fill="#0054D4"/>
</svg>
