<svg width="20" height="20" viewBox="0 0 20 20" fill="none" xmlns="http://www.w3.org/2000/svg">
<circle cx="10" cy="10" r="7.5" fill="#E4F3FF" stroke="#6584A0"/>
<path d="M10 6.5L10 11.5" stroke="#6584A0" stroke-linecap="round"/>
<mask id="path-3-inside-1" fill="white">
<path d="M10.5 13.5C10.5 13.7761 10.2761 14 10 14C9.72386 14 9.5 13.7761 9.5 13.5C9.5 13.2239 9.72386 13 10 13C10.2761 13 10.5 13.2239 10.5 13.5Z"/>
</mask>
<path d="M10.5 13.5C10.5 13.7761 10.2761 14 10 14C9.72386 14 9.5 13.7761 9.5 13.5C9.5 13.2239 9.72386 13 10 13C10.2761 13 10.5 13.2239 10.5 13.5Z" fill="#6584A0"/>
<path d="M9.5 13.5C9.5 13.2239 9.72386 13 10 13V15C10.8284 15 11.5 14.3284 11.5 13.5H9.5ZM10 13C10.2761 13 10.5 13.2239 10.5 13.5H8.5C8.5 14.3284 9.17157 15 10 15V13ZM10.5 13.5C10.5 13.7761 10.2761 14 10 14V12C9.17157 12 8.5 12.6716 8.5 13.5H10.5ZM10 14C9.72386 14 9.5 13.7761 9.5 13.5H11.5C11.5 12.6716 10.8284 12 10 12V14Z" fill="#6584A0" mask="url(#path-3-inside-1)"/>
</svg>
