<svg width="24" height="24" viewBox="0 0 24 24" fill="none" xmlns="http://www.w3.org/2000/svg">
<circle cx="12" cy="12" r="10" fill="#FFECA9"/>
<path d="M11.7738 13.36C11.7138 13.36 11.6638 13.34 11.6238 13.3C11.5838 13.26 11.5638 13.21 11.5638 13.15V12.75C11.5771 12.3967 11.6671 12.0933 11.8338 11.84C12.0004 11.5867 12.2438 11.2967 12.5638 10.97C12.8238 10.7033 13.0138 10.4833 13.1338 10.31C13.2538 10.1367 13.3138 9.94667 13.3138 9.74C13.3138 9.43333 13.1838 9.19 12.9238 9.01C12.6704 8.83 12.3738 8.74 12.0338 8.74C11.2404 8.74 10.7738 9.14 10.6338 9.94C10.6004 10.0867 10.5138 10.16 10.3738 10.16H9.89375C9.82708 10.16 9.77375 10.14 9.73375 10.1C9.69375 10.06 9.67375 10.0067 9.67375 9.94C9.68708 9.57333 9.79042 9.23667 9.98375 8.93C10.1838 8.61667 10.4638 8.36667 10.8238 8.18C11.1838 7.99333 11.5971 7.9 12.0638 7.9C12.5571 7.9 12.9704 7.98667 13.3038 8.16C13.6438 8.32667 13.8938 8.54667 14.0538 8.82C14.2138 9.08667 14.2938 9.37333 14.2938 9.68C14.2938 10.02 14.2171 10.3133 14.0638 10.56C13.9104 10.8067 13.6804 11.0933 13.3738 11.42C13.1204 11.6867 12.9304 11.9133 12.8038 12.1C12.6771 12.28 12.6038 12.4833 12.5838 12.71C12.5704 12.8967 12.5638 13.0367 12.5638 13.13C12.5304 13.2833 12.4471 13.36 12.3138 13.36H11.7738ZM11.6938 15C11.6271 15 11.5704 14.98 11.5238 14.94C11.4838 14.8933 11.4638 14.8367 11.4638 14.77V14.16C11.4638 14.0933 11.4838 14.04 11.5238 14C11.5704 13.9533 11.6271 13.93 11.6938 13.93H12.3438C12.4104 13.93 12.4671 13.9533 12.5138 14C12.5604 14.04 12.5838 14.0933 12.5838 14.16V14.77C12.5838 14.8367 12.5604 14.8933 12.5138 14.94C12.4671 14.98 12.4104 15 12.3438 15H11.6938Z" fill="#FF8A00"/>
</svg>
