<svg width="20" height="20" viewBox="0 0 20 20" fill="none" xmlns="http://www.w3.org/2000/svg">
<rect width="20" height="20" fill="white"/>
<path d="M15.9359 7.35069C15.1629 4.27112 12.0398 2.40132 8.96022 3.17436C6.55361 3.7785 4.80614 5.85849 4.62609 8.33321C2.9173 8.61501 1.76047 10.2287 2.04227 11.9375C2.29278 13.4566 3.6091 14.5691 5.14873 14.563H7.76191V13.5178H5.14873C3.99416 13.5178 3.05818 12.5818 3.05818 11.4272C3.05818 10.2727 3.99416 9.33667 5.14873 9.33667C5.43739 9.33667 5.67136 9.10269 5.67136 8.81404C5.66875 6.21624 7.77259 4.10818 10.3704 4.1056C12.6192 4.10335 14.555 5.69314 14.99 7.89942C15.0329 8.11971 15.2117 8.288 15.4342 8.31753C16.863 8.521 17.8563 9.84422 17.6529 11.273C17.4702 12.556 16.3748 13.5113 15.0788 13.5178H12.9883V14.563H15.0788C17.0993 14.5569 18.7323 12.914 18.7262 10.8935C18.7211 9.2116 17.5698 7.74982 15.9359 7.35069Z" fill="#0054D4"/>
<path d="M10.004 9.48841L7.91345 11.579L8.65037 12.3159L9.85243 11.119V16.1311H10.8977V11.119L12.0945 12.3159L12.8315 11.579L10.7409 9.48841C10.5371 9.28576 10.2079 9.28576 10.004 9.48841Z" fill="#0054D4"/>
</svg>
