<svg width="88" height="30" viewBox="0 0 88 30" fill="none" xmlns="http://www.w3.org/2000/svg">
<g clip-path="url(#clip0)">
<path d="M39.4314 18.8331C38.4185 18.5624 37.5944 18.2148 36.9591 17.7904L38.4775 14.9344C39.158 15.3679 39.8982 15.7014 40.6751 15.9247C41.4333 16.1472 42.2198 16.261 43.0106 16.2624C43.7511 16.2624 44.3255 16.1561 44.7337 15.9435C45.1419 15.7309 45.3464 15.4385 45.347 15.0661C45.347 14.7446 45.1619 14.4938 44.7916 14.3135C44.4214 14.1333 43.8473 13.9402 43.0695 13.7342C42.3224 13.5467 41.5884 13.3115 40.8719 13.0302C40.2876 12.7929 39.7698 12.4192 39.3625 11.9409C38.941 11.4517 38.7302 10.8083 38.7302 10.0109C38.7127 9.10174 38.9931 8.21152 39.5293 7.4738C40.0621 6.74761 40.8213 6.18448 41.8069 5.78441C42.7925 5.38435 43.9476 5.1863 45.2721 5.19026C46.1891 5.18357 47.1036 5.28327 47.9972 5.48734C48.7655 5.65734 49.5016 5.94748 50.1778 6.34688L48.7793 9.183C48.2337 8.84321 47.6397 8.58652 47.0172 8.42148C46.3734 8.24704 45.7088 8.15911 45.0414 8.16005C44.2755 8.16005 43.6762 8.28252 43.2433 8.52744C42.8104 8.77237 42.5934 9.0876 42.592 9.47314C42.592 9.80719 42.7801 10.0643 43.1564 10.2446C43.5327 10.4248 44.1167 10.6179 44.9085 10.8239C45.653 10.9996 46.3845 11.2252 47.0981 11.4992C47.6735 11.7293 48.1843 12.0934 48.5875 12.5608C49.0024 13.0361 49.2099 13.66 49.2099 14.4324C49.2248 15.3366 48.9414 16.2208 48.4027 16.9506C47.8633 17.6768 47.0975 18.238 46.1052 18.6341C45.113 19.0302 43.9612 19.2282 42.65 19.2282C41.5642 19.238 40.482 19.1051 39.4314 18.8331Z" fill="#242424"/>
<path d="M53.7909 5.45947H57.6447L54.8407 18.9676H50.9829L53.7909 5.45947Z" fill="#242424"/>
<path d="M68.1264 11.9237H71.5327L70.386 17.6168C69.6514 18.1612 68.8236 18.5698 67.9426 18.8229C66.9918 19.1026 66.0046 19.2424 65.0128 19.2378C63.637 19.2378 62.4332 18.9903 61.4017 18.4951C60.4152 18.0413 59.5825 17.3138 59.0043 16.4007C58.4396 15.5009 58.1575 14.4654 58.1582 13.2943C58.1582 11.7376 58.5215 10.3449 59.248 9.11635C59.9727 7.88906 61.0318 6.88924 62.3037 6.23171C63.6163 5.53655 65.1243 5.18896 66.8278 5.18896C69.5269 5.18896 71.5061 6.01881 72.7654 7.67849L69.9964 9.84023C69.6121 9.34427 69.1105 8.94975 68.536 8.69152C67.936 8.45403 67.2939 8.33917 66.648 8.35384C65.7257 8.35384 64.9179 8.55652 64.2246 8.96187C63.5405 9.35636 62.9835 9.93535 62.6184 10.6314C62.2327 11.3772 62.0388 12.2058 62.054 13.0437C62.054 13.968 62.359 14.7044 62.969 15.253C63.579 15.8016 64.4354 16.0749 65.5382 16.0729C66.1576 16.081 66.7727 15.9696 67.3493 15.7452L68.1264 11.9237Z" fill="#242424"/>
<path d="M88.0049 5.45947L85.2739 18.9676H82.1013L77.6062 11.5575L76.1078 18.9676H72.3289L75.0549 5.45947H78.2275L82.7436 12.8508L84.223 5.45947H88.0049Z" fill="#242424"/>
<path d="M36.5764 20.949H39.2635C39.8306 20.9351 40.3942 21.0411 40.9167 21.2599C41.3559 21.4449 41.7297 21.7551 41.9906 22.1511C42.2475 22.5624 42.378 23.039 42.3662 23.5226C42.3805 24.1807 42.2107 24.8299 41.8757 25.3982C41.5505 25.9345 41.0765 26.3666 40.5102 26.643C39.8855 26.944 39.1978 27.094 38.5033 27.0807H35.3387L36.5764 20.949ZM38.5563 25.7022C38.94 25.7118 39.3194 25.6195 39.6551 25.4348C39.9564 25.2635 40.1997 25.0074 40.3543 24.6991C40.518 24.3681 40.5999 24.0031 40.5931 23.6345C40.5931 23.22 40.4636 22.9001 40.2045 22.675C39.9454 22.4499 39.5652 22.3373 39.0637 22.3373H38.0438L37.3716 25.7042L38.5563 25.7022Z" fill="#242424"/>
<path d="M44.8716 22.29L44.6718 23.3238H47.4208L47.1651 24.621H44.4031L44.1813 25.747H47.4258L47.1431 27.0878H42.1835L43.4211 20.9541H48.2659L47.9922 22.2949L44.8716 22.29Z" fill="#242424"/>
<path d="M52.7801 25.8912H50.1459L49.4297 27.0795H47.5817L51.5514 20.9458H53.2745L54.7729 27.0795H53.0278L52.7801 25.8912ZM52.5143 24.6117L52.0998 22.6223L50.9151 24.6117H52.5143Z" fill="#242424"/>
<path d="M56.494 20.9492H58.2441L57.2892 25.7074H60.242L59.9593 27.0829H55.2563L56.494 20.9492Z" fill="#242424"/>
<path d="M33.0237 1.86744C32.5476 1.28737 31.9468 0.820013 31.2652 0.499474C30.5836 0.178934 29.8384 0.0132991 29.084 0.0146567H5.04394L0.118256 23.9513C-0.0333918 24.6842 -0.0186 25.4413 0.161558 26.1678C0.341717 26.8943 0.682725 27.572 1.15985 28.1516C1.63698 28.7313 2.23826 29.1984 2.92009 29.5191C3.60191 29.8398 4.34719 30.006 5.10187 30.0057H29.1419L34.0636 6.06417C34.2163 5.33202 34.2022 4.57531 34.0223 3.84927C33.8423 3.12322 33.5012 2.44614 33.0237 1.86744V1.86744Z" fill="#242424"/>
<path d="M68.9885 20.9419L67.7478 27.0894H66.3034L64.2576 23.7166L63.5753 27.0894H61.8562L63.0969 20.9419H64.5403L66.5961 24.3088L67.2694 20.9419H68.9885Z" fill="#242424"/>
<path d="M70.2242 26.8699C69.7811 26.6605 69.4087 26.3282 69.1523 25.9133C68.897 25.4889 68.7665 25.0022 68.7757 24.5081C68.7656 23.8435 68.9353 23.1883 69.2672 22.6108C69.5901 22.0517 70.0655 21.5942 70.6387 21.2908C71.2567 20.9677 71.947 20.8049 72.6455 20.8174C73.2096 20.8042 73.7691 20.9212 74.2798 21.159C74.7228 21.3691 75.095 21.7016 75.3516 22.1166C75.6065 22.5412 75.7369 23.0278 75.7282 23.5218C75.7382 24.1864 75.5685 24.8415 75.2367 25.4192C74.9131 25.9778 74.437 26.4347 73.8632 26.7372C73.2455 27.061 72.555 27.2242 71.8564 27.2115C71.2929 27.225 70.734 27.108 70.2242 26.8699ZM73.0371 25.4835C73.3316 25.2907 73.5675 25.022 73.7194 24.7062C73.8808 24.3705 73.9625 24.0026 73.9581 23.6307C73.9581 23.2148 73.8296 22.8824 73.5725 22.6336C73.3155 22.3847 72.9569 22.2602 72.4967 22.2602C72.1326 22.2531 71.7746 22.3542 71.4688 22.5504C71.1741 22.7429 70.9382 23.0117 70.7866 23.3277C70.6246 23.6632 70.5429 24.0312 70.5478 24.4031C70.5478 24.8191 70.676 25.1515 70.9324 25.4003C71.1888 25.6492 71.5477 25.7737 72.0092 25.7737C72.3728 25.7801 72.73 25.6787 73.0351 25.4825L73.0371 25.4835Z" fill="#242424"/>
<path d="M86.0521 20.9419L82.8006 27.0894H80.9226L80.4711 23.3829L78.4952 27.0894H76.6082L75.8461 20.9419H77.5732L78.0517 24.8673L80.1424 20.9419H81.7637L82.2112 24.9198L84.3199 20.9419H86.0521Z" fill="#242424"/>
<path d="M28.5845 4.09642e-06H4.94104L0.358985 22.2661L0.100264 23.5514C-0.0361614 24.214 -0.0222409 24.8983 0.141017 25.5549C0.304275 26.2114 0.612783 26.8238 1.0442 27.3476C1.47562 27.8713 2.01914 28.2935 2.63541 28.5833C3.25168 28.8732 3.92527 29.0236 4.6074 29.0236H28.2459L33.0917 5.47219C33.229 4.80954 33.2158 4.12487 33.0529 3.46792C32.89 2.81098 32.5816 2.19824 32.15 1.67423C31.7184 1.15021 31.1744 0.728074 30.5577 0.438478C29.941 0.148881 29.2669 -0.000903098 28.5845 4.09642e-06V4.09642e-06Z" fill="#0054D4"/>
<path d="M28.2355 29.0236C15.745 24.8447 5.96557 13.5498 4.92968 0L2.51929 11.7168C2.51929 11.7168 5.20739 24.0446 28.2355 29.0236Z" fill="#242424"/>
<path d="M2.51923 11.7168L2.37638 12.41L0.531372 21.3778C8.95228 26.032 16.2594 27.457 24.7422 28.6067C25.901 28.7645 27.0664 28.9031 28.2385 29.0226C5.20732 24.0446 2.51923 11.7178 2.51923 11.7168Z" fill="white"/>
<path d="M25.925 21.894C26.6243 24.1231 28.3114 29.0239 28.3114 29.0239C28.2345 28.6426 26.846 22.3634 26.3136 19.5886C25.5924 15.8474 23.8602 12.7558 21.1192 10.192C19.6181 8.7866 18.2046 7.29184 16.8868 5.71606C15.9937 4.64757 15.3364 3.36617 14.4524 1.99268C14.0898 8.06893 15.0997 10.4525 18.1764 11.515C17.9207 11.515 16.5252 11.2279 16.2684 11.2318C17.4002 14.2175 20.0104 14.6522 19.9904 14.7067C18.8487 14.7067 18.0865 14.3878 17.593 14.3363C17.593 14.3363 18.7588 16.9575 21.9044 18.1983C21.6386 18.1983 20.376 17.9547 19.9734 17.9547C21.1192 19.5896 23.6864 22.1217 26.0089 23.5131C23.4407 15.4771 17.3733 10.0792 15.9828 6.01116C19.3791 11.113 23.2859 13.4401 25.925 21.894Z" fill="white"/>
</g>
<defs>
<clipPath id="clip0">
<rect width="88" height="30" fill="white"/>
</clipPath>
</defs>
</svg>
