<svg width="18" height="20" viewBox="0 0 18 20" fill="none" xmlns="http://www.w3.org/2000/svg">
<path d="M9.48126 4.25505L15.0582 4.24313C15.4002 4.24239 15.6784 4.51942 15.6791 4.86144L15.703 16.0153C15.7037 16.3573 15.4267 16.6355 15.0847 16.6362L9.50777 16.6481C9.1651 16.6489 8.88872 16.9264 8.88945 17.2691C8.89018 17.6118 9.16775 17.8882 9.51042 17.8875L15.0873 17.8756C16.1122 17.8734 16.9445 17.0375 16.9423 16.0126L16.9185 4.85882C16.9163 3.83391 16.0804 3.00165 15.0555 3.00384L9.47861 3.01577C9.13594 3.01651 8.85956 3.29407 8.86029 3.63674C8.86102 3.9794 9.13859 4.25579 9.48126 4.25505Z" fill="#0054D4"/>
<path d="M2.1947 10.9088L5.97016 14.6186C6.21358 14.8586 6.60642 14.8546 6.84633 14.6106C7.08624 14.3665 7.08293 13.9743 6.83825 13.7344L4.14018 11.0831L11.3548 11.0676C11.6975 11.0669 11.9739 10.7893 11.9731 10.4467C11.9724 10.104 11.6948 9.8276 11.3522 9.82833L4.13753 9.84377L6.82424 7.18094C7.06785 6.93999 7.06888 6.54775 6.82857 6.30474C6.70687 6.1823 6.54685 6.12069 6.38698 6.12103C6.22957 6.12137 6.07233 6.18118 5.95237 6.30043L2.19281 10.0264C2.07532 10.1432 2.00875 10.302 2.0091 10.468C2.00946 10.634 2.0761 10.7919 2.1947 10.9088Z" fill="#0054D4"/>
</svg>
