<svg width="132" height="45" viewBox="0 0 132 45" fill="none" xmlns="http://www.w3.org/2000/svg">
<g clip-path="url(#clip0)">
<path d="M59.1472 28.2489C57.6279 27.8429 56.3917 27.3215 55.4387 26.6848L57.7163 22.4009C58.737 23.0511 59.8474 23.5514 61.0127 23.8863C62.15 24.2201 63.3298 24.3907 64.5159 24.3928C65.6267 24.3928 66.4883 24.2334 67.1006 23.9145C67.713 23.5957 68.0196 23.157 68.0206 22.5985C68.0206 22.1162 67.7429 21.7399 67.1875 21.4696C66.6321 21.1992 65.7711 20.9096 64.6043 20.6006C63.4837 20.3193 62.3826 19.9665 61.3079 19.5445C60.4315 19.1886 59.6547 18.628 59.0438 17.9106C58.4115 17.1768 58.0954 16.2118 58.0954 15.0155C58.0691 13.6519 58.4897 12.3165 59.2941 11.21C60.0932 10.1207 61.232 9.27599 62.7104 8.67589C64.1888 8.07579 65.9214 7.77871 67.9082 7.78465C69.2836 7.77462 70.6555 7.92417 71.9958 8.23027C73.1483 8.48527 74.2524 8.92049 75.2668 9.51959L73.1691 13.7738C72.3506 13.2641 71.4596 12.879 70.5259 12.6315C69.5602 12.3698 68.5633 12.2379 67.5621 12.2393C66.4134 12.2393 65.5143 12.423 64.865 12.7904C64.2157 13.1578 63.8901 13.6307 63.8881 14.209C63.8881 14.7101 64.1703 15.0958 64.7347 15.3661C65.2991 15.6364 66.1751 15.9261 67.3628 16.2351C68.4795 16.4986 69.5769 16.8371 70.6473 17.2481C71.5102 17.5932 72.2766 18.1394 72.8814 18.8404C73.5037 19.5534 73.8149 20.4892 73.8149 21.6478C73.8373 23.0041 73.4122 24.3305 72.6042 25.4252C71.795 26.5145 70.6463 27.3562 69.1579 27.9504C67.6695 28.5445 65.9419 28.8416 63.975 28.8416C62.3464 28.8562 60.723 28.6569 59.1472 28.2489Z" fill="white"/>
<path d="M80.6863 8.18848H86.4671L82.2611 28.4507H76.4744L80.6863 8.18848Z" fill="white"/>
<path d="M102.19 17.8854H107.299L105.579 26.4249C104.477 27.2416 103.235 27.8545 101.914 28.2341C100.488 28.6536 99.0069 28.8633 97.5192 28.8565C95.4554 28.8565 93.6499 28.4851 92.1025 27.7424C90.6228 27.0617 89.3738 25.9705 88.5064 24.6008C87.6593 23.2511 87.2363 21.6979 87.2373 19.9412C87.2373 17.6061 87.7822 15.5172 88.872 13.6743C89.959 11.8333 91.5477 10.3336 93.4556 9.34732C95.4245 8.30458 97.6865 7.7832 100.242 7.7832C104.29 7.7832 107.259 9.02796 109.148 11.5175L104.995 14.7601C104.418 14.0162 103.666 13.4244 102.804 13.037C101.904 12.6808 100.941 12.5085 99.972 12.5305C98.5885 12.5305 97.3768 12.8345 96.337 13.4426C95.3108 14.0343 94.4753 14.9028 93.9276 15.9469C93.349 17.0655 93.0582 18.3085 93.081 19.5653C93.081 20.9517 93.5385 22.0564 94.4535 22.8793C95.3685 23.7022 96.6531 24.1121 98.3073 24.1092C99.2364 24.1212 100.159 23.9542 101.024 23.6175L102.19 17.8854Z" fill="white"/>
<path d="M132.007 8.18848L127.911 28.4507H123.152L116.409 17.3355L114.162 28.4507H108.493L112.582 8.18848H117.341L124.115 19.2754L126.335 8.18848H132.007Z" fill="white"/>
<path d="M54.8648 31.4237H58.8955C59.7461 31.4029 60.5914 31.5619 61.3753 31.8901C62.034 32.1675 62.5947 32.6329 62.986 33.2269C63.3714 33.8439 63.5672 34.5588 63.5494 35.2842C63.5709 36.2713 63.3163 37.2451 62.8137 38.0975C62.3259 38.9019 61.6149 39.5501 60.7654 39.9647C59.8284 40.4162 58.7968 40.6412 57.7552 40.6212H53.0083L54.8648 31.4237ZM57.8346 38.5536C58.4102 38.5679 58.9793 38.4294 59.4828 38.1525C59.9348 37.8954 60.2997 37.5114 60.5317 37.0489C60.7772 36.5523 60.9 36.005 60.8898 35.4521C60.8898 34.8302 60.6955 34.3504 60.3069 34.0127C59.9184 33.675 59.348 33.5062 58.5958 33.5062H57.0659L56.0575 38.5565L57.8346 38.5536Z" fill="white"/>
<path d="M67.3073 33.4345L67.0076 34.9852H71.1312L70.7476 36.9311H66.6046L66.2719 38.62H71.1387L70.7146 40.6312H63.2751L65.1316 31.4307H72.3988L71.9882 33.4419L67.3073 33.4345Z" fill="white"/>
<path d="M79.1701 38.837H75.2189L74.1446 40.6195H71.3726L77.3271 31.4189H79.9118L82.1594 40.6195H79.5417L79.1701 38.837ZM78.7716 36.9179L78.1497 33.9337L76.3727 36.9179H78.7716Z" fill="white"/>
<path d="M84.741 31.4238H87.3662L85.9337 38.5611H90.363L89.9389 40.6244H82.8845L84.741 31.4238Z" fill="white"/>
<path d="M49.535 2.80067C48.8208 1.93057 47.9196 1.22953 46.8972 0.748722C45.8748 0.267913 44.757 0.0194604 43.6254 0.0214968H7.56536L0.176834 35.9264C-0.050637 37.0257 -0.0284493 38.1615 0.241788 39.2512C0.512026 40.341 1.02354 41.3575 1.73923 42.2269C2.45492 43.0964 3.35684 43.7971 4.37958 44.2781C5.40232 44.7592 6.52024 45.0085 7.65226 45.0081H43.7123L51.0949 9.09576C51.3239 7.99754 51.3027 6.86248 51.0328 5.77341C50.763 4.68434 50.2513 3.66872 49.535 2.80067V2.80067Z" fill="#242424"/>
<path d="M103.483 31.4131L101.622 40.6344H99.4552L96.3865 35.5752L95.3631 40.6344H92.7844L94.6454 31.4131H96.8106L99.8942 36.4634L100.904 31.4131H103.483Z" fill="white"/>
<path d="M105.336 40.3048C104.672 39.9908 104.113 39.4923 103.729 38.8699C103.346 38.2334 103.15 37.5033 103.164 36.7622C103.149 35.7653 103.403 34.7825 103.901 33.9162C104.385 33.0776 105.098 32.3913 105.958 31.9361C106.885 31.4516 107.921 31.2073 108.968 31.2261C109.815 31.2063 110.654 31.3818 111.42 31.7386C112.084 32.0536 112.643 32.5524 113.028 33.175C113.41 33.8118 113.606 34.5417 113.593 35.2827C113.607 36.2796 113.353 37.2623 112.855 38.1287C112.37 38.9668 111.656 39.652 110.795 40.1058C109.868 40.5916 108.833 40.8364 107.785 40.8173C106.94 40.8375 106.101 40.662 105.336 40.3048ZM109.556 38.2253C109.998 37.9361 110.351 37.5329 110.579 37.0593C110.821 36.5557 110.944 36.0039 110.937 35.4461C110.937 34.8223 110.745 34.3237 110.359 33.9503C109.973 33.577 109.435 33.3903 108.745 33.3903C108.199 33.3797 107.662 33.5313 107.203 33.8256C106.761 34.1144 106.407 34.5176 106.18 34.9916C105.937 35.4949 105.815 36.0469 105.822 36.6047C105.822 37.2286 106.014 37.7272 106.399 38.1005C106.783 38.4738 107.322 38.6605 108.014 38.6605C108.559 38.6701 109.095 38.518 109.553 38.2238L109.556 38.2253Z" fill="white"/>
<path d="M129.078 31.4131L124.201 40.6344H121.384L120.707 35.0746L117.743 40.6344H114.913L113.769 31.4131H116.36L117.078 37.3012L120.214 31.4131H122.646L123.317 37.3799L126.48 31.4131H129.078Z" fill="white"/>
<path d="M42.8765 6.14462e-06H7.41131L0.538233 33.3991L0.150152 35.3271C-0.0544862 36.3209 -0.0336055 37.3474 0.211281 38.3323C0.456168 39.3171 0.918931 40.2356 1.56606 41.0213C2.21318 41.807 3.02847 42.4402 3.95287 42.875C4.87728 43.3098 5.88766 43.5354 6.91085 43.5354H42.3686L49.6372 8.20829C49.8433 7.21431 49.8234 6.18731 49.5791 5.20189C49.3348 4.21646 48.8721 3.29736 48.2247 2.51134C47.5773 1.72532 46.7614 1.09211 45.8363 0.657717C44.9112 0.223322 43.9002 -0.00135465 42.8765 6.14462e-06V6.14462e-06Z" fill="#0054D4"/>
<path d="M42.3532 43.5354C23.6174 37.267 8.94823 20.3246 7.3944 0L3.77881 17.5752C3.77881 17.5752 7.81096 36.0668 42.3532 43.5354Z" fill="#242424"/>
<path d="M3.7789 17.5752L3.56463 18.615L0.797119 32.0667C13.4285 39.048 24.3891 41.1855 37.1134 42.9101C38.8515 43.1467 40.5996 43.3547 42.3577 43.5339C7.81104 36.0669 3.7789 17.5767 3.7789 17.5752Z" fill="white"/>
<path d="M38.8874 32.8402C39.9363 36.1839 42.467 43.5351 42.467 43.5351C42.3517 42.9632 40.2689 33.5443 39.4703 29.3822C38.3884 23.7704 35.7902 19.133 31.6787 15.2873C29.427 13.1792 27.3068 10.937 25.33 8.57336C23.9905 6.97062 23.0046 5.04852 21.6785 2.98828C21.1346 12.1027 22.6494 15.678 27.2645 17.2718C26.8809 17.2718 24.7876 16.8411 24.4025 16.847C26.1002 21.3255 30.0155 21.9776 29.9855 22.0592C28.2729 22.0592 27.1296 21.581 26.3894 21.5037C26.3894 21.5037 28.138 25.4355 32.8564 27.2967C32.4578 27.2967 30.5639 26.9313 29.96 26.9313C31.6787 29.3837 35.5295 33.1819 39.0133 35.2689C35.1609 23.2149 26.0598 15.118 23.974 9.01601C29.0685 16.6688 34.9287 20.1594 38.8874 32.8402Z" fill="white"/>
</g>
<defs>
<clipPath id="clip0">
<rect width="132" height="45" fill="white"/>
</clipPath>
</defs>
</svg>
