<svg width="19" height="20" viewBox="0 0 19 20" fill="none" xmlns="http://www.w3.org/2000/svg">
<path d="M16.9372 16.4893L15.8388 13.2926C16.3671 12.2247 16.6465 11.0343 16.6484 9.83657C16.6515 7.77401 15.8535 5.82373 14.4012 4.3451C12.9486 2.8662 11.013 2.03376 8.951 2.00104C7.87065 1.9837 6.82233 2.18276 5.83357 2.59204C4.87991 2.98682 4.02469 3.55867 3.29169 4.29167C2.55865 5.02467 1.9868 5.87988 1.59205 6.83354C1.18277 7.82229 0.983921 8.87113 1.00102 9.95094C1.03367 12.013 1.86615 13.9486 3.34506 15.4011C4.82082 16.8506 6.76608 17.6484 8.82422 17.6483C8.82825 17.6483 8.8325 17.6483 8.83653 17.6483C10.0343 17.6465 11.2246 17.3671 12.2926 16.8388L15.4893 17.9372C15.6122 17.9794 15.7382 18 15.8629 18C16.1589 18 16.4469 17.8837 16.6653 17.6653C16.9756 17.355 17.0798 16.9043 16.9372 16.4893ZM15.9945 16.9945C15.963 17.026 15.8957 17.0737 15.7975 17.04L12.4102 15.8761C12.3601 15.8589 12.308 15.8503 12.2561 15.8503C12.1795 15.8503 12.1033 15.8689 12.0342 15.9054C11.0553 16.4233 9.94901 16.698 8.83503 16.6997C5.09907 16.7057 2.00868 13.6713 1.94949 9.93591C1.91971 8.05657 2.63459 6.29029 3.96244 4.96245C5.29029 3.63464 7.05605 2.91989 8.93594 2.9496C12.6713 3.00882 15.7055 6.09767 15.6997 9.8351C15.6979 10.9491 15.4233 12.0553 14.9054 13.0343C14.8441 13.1501 14.8335 13.2862 14.8761 13.4102L16.04 16.7975C16.0738 16.8956 16.026 16.9631 15.9945 16.9945Z" fill="#0054D4" stroke="#0054D4" stroke-width="0.2"/>
<path d="M8.74813 13.3354C8.50005 13.3354 8.26237 13.5536 8.27384 13.8097C8.28534 14.0667 8.48223 14.284 8.74813 14.284C8.99622 14.284 9.23389 14.0659 9.22243 13.8097C9.21093 13.5528 9.01403 13.3354 8.74813 13.3354Z" fill="#0054D4" stroke="#0054D4" stroke-width="0.3"/>
<path d="M8.74744 5.98975C7.44628 5.98975 6.3877 7.04833 6.3877 8.3495C6.3877 8.61142 6.60006 8.82379 6.86199 8.82379C7.12392 8.82379 7.33628 8.61142 7.33628 8.3495C7.33628 7.5714 7.96935 6.93833 8.74744 6.93833C9.52554 6.93833 10.1586 7.5714 10.1586 8.3495C10.1586 9.12759 9.52554 9.76066 8.74744 9.76066C8.48552 9.76066 8.27315 9.97302 8.27315 10.235V12.1694C8.27315 12.4313 8.48552 12.6437 8.74744 12.6437C9.00937 12.6437 9.22174 12.4314 9.22174 12.1694V10.6613C10.2964 10.4412 11.1072 9.48826 11.1072 8.3495C11.1072 7.04833 10.0486 5.98975 8.74744 5.98975Z" fill="#0054D4" stroke="#0054D4" stroke-width="0.3"/>
</svg>
