<svg width="19" height="20" viewBox="0 0 19 20" fill="none" xmlns="http://www.w3.org/2000/svg">
<g clip-path="url(#clip0)">
<path d="M10.6881 2.78513L10.6882 2.78522L17.2156 9.31168L17.2156 9.31171L17.2163 9.31242C17.2164 9.31249 17.2164 9.31256 17.2165 9.31263C17.5947 9.69186 17.5945 10.3093 17.2158 10.6882C17.0311 10.8727 16.7883 10.9731 16.5277 10.9731H16.2865H15.7865V11.4731V16.2762C15.7865 16.9504 15.2371 17.5 14.5623 17.5H12.0398V13.7656C12.0398 13.0557 11.4631 12.4791 10.7532 12.4791H9.24697C8.53712 12.4791 7.96039 13.0557 7.96039 13.7656V17.5H5.43787C4.76313 17.5 4.21369 16.9504 4.21369 16.2762V11.4731V10.9731H3.71369H3.45496L3.44314 10.972L3.42956 10.9714C3.18463 10.9609 2.95738 10.8611 2.78422 10.6879L2.78414 10.6878C2.40597 10.3097 2.40521 9.69326 2.78235 9.31398L2.78234 9.31397L2.78909 9.30711L2.78943 9.30677L9.3119 2.78509L9.3119 2.78509C9.4965 2.60052 9.73924 2.5 10.0001 2.5C10.2609 2.5 10.5036 2.60057 10.6881 2.78513Z" stroke="#0054D4"/>
</g>
<defs>
<clipPath id="clip0">
<rect width="19" height="20" fill="white"/>
</clipPath>
</defs>
</svg>
