<svg width="19" height="20" viewBox="0 0 19 20" fill="none" xmlns="http://www.w3.org/2000/svg">
<path d="M10 9C10.8243 9 11.5379 8.70436 12.1212 8.12107C12.7043 7.53787 13 6.82429 13 5.99991C13 5.17581 12.7044 4.46213 12.1211 3.87874C11.5378 3.29564 10.8242 3 10 3C9.17564 3 8.46208 3.29564 7.8789 3.87884C7.29572 4.46204 7 5.17571 7 5.99991C7 6.82429 7.29572 7.53796 7.8789 8.12116C8.46227 8.70427 9.17593 9 10 9V9ZM8.39509 4.39494C8.84257 3.94745 9.3675 3.72992 10 3.72992C10.6324 3.72992 11.1574 3.94745 11.605 4.39494C12.0525 4.84254 12.2701 5.36758 12.2701 5.99991C12.2701 6.63242 12.0525 7.15737 11.605 7.60496C11.1574 8.05255 10.6324 8.27008 10 8.27008C9.36769 8.27008 8.84276 8.05246 8.39509 7.60496C7.94751 7.15746 7.7299 6.63242 7.7299 5.99991C7.7299 5.36758 7.94751 4.84254 8.39509 4.39494Z" fill="#0054D4" stroke="#0054D4" stroke-width="0.3"/>
<path d="M16.9661 13.4245C16.9434 13.123 16.8976 12.794 16.8301 12.4467C16.762 12.0967 16.6743 11.7659 16.5693 11.4636C16.4608 11.151 16.3134 10.8424 16.131 10.5467C15.9419 10.2397 15.7196 9.97239 15.4702 9.75243C15.2094 9.52232 14.8902 9.33731 14.5209 9.20236C14.153 9.06812 13.7452 9.00012 13.3091 9.00012C13.1378 9.00012 12.9721 9.06494 12.6522 9.25703C12.4553 9.37545 12.2249 9.5124 11.9679 9.66388C11.748 9.79305 11.4503 9.91406 11.0824 10.0236C10.7236 10.1307 10.3592 10.185 9.99949 10.185C9.63999 10.185 9.27564 10.1307 8.91653 10.0236C8.5491 9.91418 8.25118 9.79316 8.03175 9.664C7.77711 9.51394 7.54666 9.37698 7.34682 9.25691C7.02714 9.06482 6.86148 9 6.69018 9C6.25387 9 5.84624 9.06812 5.47843 9.20248C5.10946 9.3372 4.79004 9.5222 4.529 9.75255C4.27961 9.97262 4.05736 10.2398 3.86839 10.5467C3.68621 10.8424 3.53873 11.1509 3.43016 11.4637C3.32531 11.766 3.23761 12.0967 3.1695 12.4467C3.10191 12.7936 3.0562 13.1226 3.03354 13.4249C3.01127 13.7204 3 14.0279 3 14.3387C3 15.1465 3.27845 15.8005 3.82755 16.2828C4.36986 16.7587 5.08731 17 5.96006 17H14.0399C14.9124 17 15.6299 16.7587 16.1723 16.2828C16.7215 15.8008 17 15.1466 17 14.3386C16.9999 14.0268 16.9885 13.7192 16.9661 13.4245V13.4245ZM15.4943 15.6257C15.136 15.9402 14.6602 16.0931 14.0398 16.0931H5.96006C5.33952 16.0931 4.86378 15.9402 4.50557 15.6258C4.15414 15.3173 3.98336 14.8962 3.98336 14.3387C3.98336 14.0487 3.99373 13.7624 4.01447 13.4876C4.03469 13.2179 4.07605 12.9217 4.13737 12.6069C4.19793 12.296 4.275 12.0043 4.36666 11.7402C4.45462 11.4869 4.57457 11.2362 4.72334 10.9946C4.86532 10.7644 5.02868 10.5668 5.20894 10.4077C5.37754 10.2588 5.59007 10.137 5.84048 10.0456C6.07208 9.96105 6.33235 9.91477 6.6149 9.90781C6.64934 9.92469 6.71066 9.95692 6.81001 10.0167C7.01216 10.1382 7.24517 10.2768 7.50275 10.4285C7.79311 10.5992 8.1672 10.7534 8.61413 10.8865C9.07105 11.0227 9.53706 11.0919 9.99962 11.0919C10.4622 11.0919 10.9283 11.0227 11.385 10.8866C11.8323 10.7533 12.2062 10.5992 12.497 10.4282C12.7606 10.2729 12.9871 10.1383 13.1892 10.0167C13.2886 9.95704 13.3499 9.92469 13.3843 9.90781C13.667 9.91477 13.9273 9.96105 14.159 10.0456C14.4093 10.137 14.6218 10.2589 14.7904 10.4077C14.9707 10.5667 15.134 10.7643 15.276 10.9947C15.4249 11.2362 15.545 11.487 15.6328 11.7401C15.7246 12.0045 15.8018 12.2962 15.8622 12.6068C15.9234 12.9221 15.9649 13.2185 15.9851 13.4877V13.4879C16.006 13.7617 16.0165 14.0479 16.0166 14.3387C16.0165 14.8963 15.8457 15.3173 15.4943 15.6257V15.6257Z" fill="#0054D4"/>
</svg>
